{"glyphs":{"0":{"ha":778,"x_min":56,"x_max":722,"o":"m 389 903 q 523 870 461 903 q 628 778 585 838 q 697 633 672 718 q 722 444 722 549 q 697 256 722 340 q 628 111 672 171 q 523 19 585 51 q 389 -14 461 -14 q 254 19 315 -14 q 149 111 193 51 q 81 256 106 171 q 56 444 56 340 q 81 633 56 549 q 149 778 106 718 q 254 870 193 838 q 389 903 315 903 m 389 42 q 490 81 451 42 q 549 181 528 121 q 576 311 569 240 q 583 444 583 382 q 576 578 583 507 q 549 708 569 649 q 490 808 528 768 q 389 847 451 847 q 288 808 326 847 q 229 708 250 768 q 201 578 208 649 q 194 444 194 507 q 201 311 194 382 q 229 181 208 240 q 288 81 250 121 q 389 42 326 42 z "},"1":{"ha":417,"x_min":56,"x_max":361,"o":"m 361 0 l 83 0 l 83 28 q 142 52 118 28 q 167 111 167 76 l 167 667 l 56 667 l 56 694 q 120 708 90 694 q 173 744 150 721 q 209 797 196 767 q 222 861 222 826 l 222 889 l 278 889 l 278 667 l 278 111 q 302 52 278 76 q 361 28 326 28 l 361 0 z "},"2":{"ha":778,"x_min":56,"x_max":722,"o":"m 319 583 q 290 572 301 583 q 278 542 278 560 l 236 597 q 256 647 236 626 q 306 667 276 667 q 374 634 346 667 q 403 556 403 601 q 358 455 403 493 q 250 417 313 417 q 167 433 203 417 q 106 479 131 450 q 68 546 81 508 q 56 625 56 583 q 76 722 56 672 q 135 811 96 771 q 231 877 175 851 q 361 903 288 903 q 490 881 429 903 q 596 818 550 858 q 668 722 642 778 q 694 597 694 665 q 661 451 694 511 q 576 347 628 390 q 463 269 525 303 q 342 205 400 236 q 240 139 285 174 q 176 56 194 104 l 500 56 q 576 71 540 56 q 638 113 611 86 q 679 174 664 139 q 694 250 694 210 l 722 250 l 722 0 l 56 0 q 92 138 56 83 q 185 233 129 193 q 306 306 240 272 q 426 378 371 339 q 519 473 482 418 q 556 611 556 528 q 540 690 556 653 q 497 757 525 728 q 426 803 468 786 q 333 819 385 819 q 240 801 281 819 q 170 752 199 782 q 126 685 142 722 q 111 611 111 647 q 123 547 111 575 q 154 499 135 518 q 199 469 174 479 q 250 458 224 458 q 297 467 276 458 q 331 488 317 475 q 353 515 346 500 q 361 542 361 529 q 349 572 361 560 q 319 583 338 583 z "},"3":{"ha":778,"x_min":56,"x_max":722,"o":"m 319 306 q 349 317 338 306 q 361 347 361 329 q 353 374 361 360 q 331 401 346 389 q 297 422 317 414 q 250 431 276 431 q 199 420 224 431 q 154 390 174 410 q 123 342 135 371 q 111 278 111 314 q 126 204 111 242 q 172 137 142 167 q 246 88 201 107 q 347 69 290 69 q 442 87 399 69 q 517 135 486 104 q 566 210 549 167 q 583 306 583 253 q 564 403 583 357 q 510 483 544 449 q 431 536 476 517 q 333 556 385 556 l 333 611 l 526 833 l 333 833 q 258 818 293 833 q 196 776 222 803 q 154 715 169 750 q 139 639 139 679 l 111 639 l 111 889 l 722 889 l 469 599 q 565 565 519 588 q 646 507 611 543 q 701 421 681 471 q 722 306 722 371 q 692 168 722 228 q 611 68 661 108 q 499 7 561 28 q 375 -14 438 -14 q 225 14 286 -14 q 126 83 164 42 q 72 174 89 125 q 56 264 56 222 q 68 343 56 306 q 106 410 81 381 q 167 456 131 439 q 250 472 203 472 q 358 434 313 472 q 403 333 403 396 q 374 255 403 288 q 306 222 346 222 q 256 242 276 222 q 236 292 236 263 l 278 347 q 290 317 278 329 q 319 306 301 306 z "},"4":{"ha":778,"x_min":56,"x_max":722,"o":"m 611 222 l 611 111 q 635 52 611 76 q 694 28 660 28 l 694 0 l 417 0 l 417 28 q 476 52 451 28 q 500 111 500 76 l 500 222 l 56 222 l 556 889 l 611 889 l 611 278 l 722 278 l 722 222 l 611 222 m 500 278 l 500 631 l 240 278 l 500 278 z "},"5":{"ha":778,"x_min":56,"x_max":722,"o":"m 319 306 q 349 317 338 306 q 361 347 361 329 q 353 374 361 360 q 331 401 346 389 q 297 422 317 414 q 250 431 276 431 q 199 420 224 431 q 154 390 174 410 q 123 342 135 371 q 111 278 111 314 q 126 204 111 242 q 170 137 142 167 q 240 88 199 107 q 333 69 281 69 q 437 91 390 69 q 516 149 483 113 q 566 233 549 186 q 583 333 583 281 q 562 447 583 396 q 503 535 540 499 q 419 591 467 571 q 319 611 371 611 q 249 603 278 611 q 201 583 219 594 q 167 556 179 571 l 111 556 l 167 889 l 667 889 l 667 833 l 268 833 l 235 650 q 286 662 258 657 q 347 667 314 667 q 476 647 410 667 q 597 586 543 628 q 687 478 651 544 q 722 319 722 413 q 691 180 722 242 q 609 75 660 118 q 494 9 558 32 q 361 -14 429 -14 q 231 12 288 -14 q 135 78 175 38 q 76 167 96 118 q 56 264 56 217 q 68 343 56 306 q 106 410 81 381 q 167 456 131 439 q 250 472 203 472 q 358 434 313 472 q 403 333 403 396 q 374 255 403 288 q 306 222 346 222 q 256 242 276 222 q 236 292 236 263 l 278 347 q 290 317 278 329 q 319 306 301 306 z "},"6":{"ha":778,"x_min":56,"x_max":722,"o":"m 389 569 q 511 551 451 569 q 618 497 571 533 q 694 405 665 460 q 722 278 722 350 q 694 150 722 204 q 618 59 665 96 q 511 4 571 22 q 389 -14 451 -14 q 267 5 326 -14 q 160 65 207 24 q 84 173 113 107 q 56 333 56 239 q 103 584 56 479 q 229 757 151 689 q 407 857 307 825 q 611 889 507 889 l 611 833 q 481 813 543 833 q 366 751 418 792 q 274 649 314 710 q 214 506 235 588 q 284 551 242 533 q 389 569 326 569 m 389 42 q 466 59 431 42 q 528 108 501 76 q 569 182 554 139 q 583 278 583 225 q 569 373 583 329 q 528 448 554 417 q 466 497 501 479 q 389 514 431 514 q 319 504 350 514 q 266 478 289 494 q 226 443 243 463 q 197 406 208 424 q 195 370 196 388 q 194 333 194 353 q 250 115 194 188 q 389 42 306 42 z "},"7":{"ha":778,"x_min":56,"x_max":722,"o":"m 722 889 l 290 0 l 167 0 l 572 833 l 278 833 q 202 818 238 833 q 140 776 167 803 q 99 715 114 750 q 83 639 83 679 l 56 639 l 56 889 l 722 889 z "},"8":{"ha":778,"x_min":56,"x_max":722,"o":"m 236 708 q 272 620 236 653 q 363 565 308 588 q 479 521 417 542 q 596 467 542 500 q 686 384 650 435 q 722 250 722 333 q 694 133 722 182 q 618 51 665 83 q 511 2 571 18 q 389 -14 451 -14 q 267 2 326 -14 q 160 51 207 18 q 84 133 113 83 q 56 250 56 182 q 74 335 56 299 q 120 399 92 372 q 184 444 149 426 q 253 474 219 463 q 292 453 272 463 q 333 435 313 444 q 285 399 310 419 q 241 353 261 379 q 208 294 221 326 q 194 222 194 261 q 250 90 194 139 q 389 42 306 42 q 528 90 472 42 q 583 222 583 139 q 549 324 583 285 q 465 390 515 363 q 354 441 414 418 q 244 494 294 464 q 159 567 193 524 q 125 681 125 611 q 143 762 125 722 q 194 833 161 801 q 277 883 228 864 q 389 903 326 903 q 501 883 451 903 q 583 833 550 864 q 635 762 617 801 q 653 681 653 722 q 643 622 653 649 q 617 576 633 596 q 579 540 600 556 q 536 513 558 524 q 496 530 517 522 q 456 544 475 538 q 515 610 488 569 q 542 708 542 650 q 497 809 542 771 q 389 847 451 847 q 281 809 326 847 q 236 708 236 771 z "},"9":{"ha":778,"x_min":56,"x_max":722,"o":"m 389 889 q 511 869 451 889 q 618 808 571 850 q 694 701 665 767 q 722 542 722 635 q 674 291 722 396 q 549 118 626 186 q 371 18 471 50 q 167 -14 271 -14 l 167 42 q 297 63 233 42 q 412 124 360 83 q 503 226 464 165 q 564 369 543 288 q 494 324 536 342 q 389 306 451 306 q 267 324 326 306 q 160 378 207 342 q 84 469 113 415 q 56 597 56 524 q 84 724 56 669 q 160 816 113 779 q 267 871 207 853 q 389 889 326 889 m 389 361 q 458 371 428 361 q 512 397 489 381 q 552 431 535 413 q 581 469 569 450 q 583 505 582 488 q 583 542 583 522 q 528 760 583 688 q 389 833 472 833 q 312 816 347 833 q 250 767 276 799 q 209 692 224 736 q 194 597 194 649 q 209 501 194 544 q 250 427 224 458 q 312 378 276 396 q 389 361 347 361 z "},"\u0000":{"ha":0,"x_min":0,"x_max":0,"o":""},"\r":{"ha":333,"x_min":0,"x_max":0,"o":""}," ":{"ha":333,"x_min":0,"x_max":0,"o":""},"A":{"ha":847,"x_min":0,"x_max":847,"o":"m 847 0 l 569 0 l 569 28 q 600 35 586 28 q 622 56 614 43 q 633 83 631 68 q 629 115 635 99 l 590 222 l 208 222 l 165 108 q 163 79 160 93 q 173 53 165 65 q 194 35 181 42 q 222 28 207 28 l 222 0 l 0 0 l 0 28 q 63 47 35 28 q 103 99 90 67 l 399 889 l 458 889 l 758 89 q 793 44 769 61 q 847 28 817 28 l 847 0 m 569 278 l 399 731 l 229 278 l 569 278 z "},"B":{"ha":806,"x_min":28,"x_max":778,"o":"m 561 478 q 719 401 660 454 q 778 250 778 347 q 744 128 778 176 q 649 52 710 81 q 508 12 589 24 q 333 0 426 0 l 28 0 l 28 28 q 87 52 63 28 q 111 111 111 76 l 111 778 q 87 837 111 813 q 28 861 63 861 l 28 889 l 306 889 q 460 878 389 889 q 583 840 531 867 q 665 772 635 814 q 694 667 694 729 q 659 547 694 592 q 561 478 624 501 m 222 500 l 306 500 q 403 510 357 500 q 483 542 449 521 q 536 594 517 563 q 556 667 556 625 q 536 740 556 708 q 483 792 517 771 q 403 823 449 813 q 306 833 357 833 l 222 833 l 222 500 m 333 56 q 451 67 396 56 q 549 101 507 78 q 615 160 590 124 q 639 250 639 197 q 615 339 639 301 q 549 399 590 376 q 451 433 507 422 q 333 444 396 444 l 222 444 l 222 56 l 333 56 z "},"C":{"ha":889,"x_min":56,"x_max":833,"o":"m 833 222 q 765 104 810 156 q 721 60 746 82 q 663 22 696 39 q 590 -4 631 6 q 500 -14 550 -14 q 337 11 417 -14 q 194 90 257 36 q 94 232 132 144 q 56 444 56 319 q 94 657 56 569 q 194 799 132 744 q 337 878 257 853 q 500 903 417 903 q 622 884 571 903 q 710 839 674 865 q 742 828 725 828 q 773 835 758 828 q 797 857 788 843 q 806 889 806 871 l 833 889 l 833 639 l 806 639 q 750 743 786 697 q 665 815 718 782 q 528 847 611 847 q 370 815 433 847 q 267 729 307 783 q 211 601 228 675 q 194 444 194 528 q 217 288 194 361 q 285 160 240 214 q 394 74 329 106 q 542 42 458 42 q 665 69 615 42 q 746 132 714 97 q 806 222 782 171 l 833 222 z "},"D":{"ha":917,"x_min":28,"x_max":861,"o":"m 361 889 q 556 866 465 889 q 715 791 647 843 q 822 654 783 739 q 861 444 861 569 q 822 234 861 319 q 715 97 783 149 q 556 22 647 44 q 361 0 465 0 l 28 0 l 28 28 q 87 52 63 28 q 111 111 111 76 l 111 778 q 87 837 111 813 q 28 861 63 861 l 28 889 l 361 889 m 361 56 q 511 85 444 56 q 625 166 578 114 q 697 290 672 218 q 722 444 722 361 q 697 599 722 528 q 625 722 672 669 q 511 803 578 774 q 361 833 444 833 l 222 833 l 222 56 l 361 56 z "},"E":{"ha":806,"x_min":28,"x_max":750,"o":"m 722 639 q 707 715 722 679 q 665 776 692 750 q 603 818 639 803 q 528 833 568 833 l 222 833 l 222 472 l 389 472 q 488 513 447 472 q 528 611 528 553 l 556 611 l 556 278 l 528 278 q 488 376 528 336 q 389 417 447 417 l 222 417 l 222 56 l 528 56 q 603 71 568 56 q 665 113 639 86 q 707 174 692 139 q 722 250 722 210 l 750 250 l 750 0 l 28 0 l 28 28 q 87 52 63 28 q 111 111 111 76 l 111 778 q 87 837 111 813 q 28 861 63 861 l 28 889 l 750 889 l 750 639 l 722 639 z "},"F":{"ha":778,"x_min":28,"x_max":750,"o":"m 750 889 l 750 639 l 722 639 q 707 715 722 679 q 665 776 692 750 q 603 818 639 803 q 528 833 568 833 l 222 833 l 222 472 l 389 472 q 488 513 447 472 q 528 611 528 553 l 556 611 l 556 278 l 528 278 q 488 376 528 336 q 389 417 447 417 l 222 417 l 222 111 q 247 52 222 76 q 306 28 271 28 l 306 0 l 28 0 l 28 28 q 87 52 63 28 q 111 111 111 76 l 111 778 q 87 837 111 813 q 28 861 63 861 l 28 889 l 750 889 z "},"G":{"ha":944,"x_min":56,"x_max":917,"o":"m 917 444 l 917 417 q 858 392 882 417 q 833 333 833 368 l 833 139 q 750 63 799 96 q 646 10 708 33 q 500 -14 583 -14 q 337 11 417 -14 q 194 90 257 36 q 94 232 132 144 q 56 444 56 319 q 94 657 56 569 q 194 799 132 744 q 337 878 257 853 q 500 903 417 903 q 622 884 571 903 q 710 839 674 865 q 742 828 725 828 q 773 835 758 828 q 797 857 788 843 q 806 889 806 871 l 833 889 l 833 639 l 806 639 q 739 743 778 697 q 653 815 704 782 q 528 847 601 847 q 382 815 444 847 q 278 729 319 783 q 215 601 236 675 q 194 444 194 528 q 215 288 194 361 q 278 160 236 214 q 382 74 319 106 q 528 42 444 42 q 617 52 581 42 q 676 76 653 63 q 722 111 703 92 l 722 333 q 698 392 722 368 q 639 417 674 417 l 639 444 l 917 444 z "},"H":{"ha":889,"x_min":28,"x_max":861,"o":"m 861 861 q 802 837 826 861 q 778 778 778 813 l 778 111 q 802 52 778 76 q 861 28 826 28 l 861 0 l 583 0 l 583 28 q 642 52 618 28 q 667 111 667 76 l 667 417 l 222 417 l 222 111 q 247 52 222 76 q 306 28 271 28 l 306 0 l 28 0 l 28 28 q 87 52 63 28 q 111 111 111 76 l 111 778 q 87 837 111 813 q 28 861 63 861 l 28 889 l 306 889 l 306 861 q 247 837 271 861 q 222 778 222 813 l 222 472 l 667 472 l 667 778 q 642 837 667 813 q 583 861 618 861 l 583 889 l 861 889 l 861 861 l 861 861 z "},"I":{"ha":333,"x_min":28,"x_max":306,"o":"m 222 111 q 247 52 222 76 q 306 28 271 28 l 306 0 l 28 0 l 28 28 q 87 52 63 28 q 111 111 111 76 l 111 778 q 87 837 111 813 q 28 861 63 861 l 28 889 l 306 889 l 306 861 q 247 837 271 861 q 222 778 222 813 l 222 111 l 222 111 z "},"J":{"ha":556,"x_min":28,"x_max":528,"o":"m 528 889 l 528 861 q 469 837 493 861 q 444 778 444 813 l 444 194 q 385 43 444 100 q 222 -14 326 -14 q 151 -1 186 -14 q 88 35 115 11 q 44 92 61 58 q 28 167 28 125 q 52 226 28 201 q 111 250 76 250 q 170 226 146 250 q 194 167 194 201 q 174 112 194 135 q 124 85 154 89 q 166 52 140 63 q 222 42 192 42 q 299 73 264 42 q 333 167 333 104 l 333 778 q 309 837 333 813 q 250 861 285 861 l 250 889 l 528 889 z "},"K":{"ha":861,"x_min":28,"x_max":861,"o":"m 861 0 l 583 0 l 583 28 q 606 43 600 28 q 601 71 613 58 l 285 386 l 222 324 l 222 111 q 247 52 222 76 q 306 28 271 28 l 306 0 l 28 0 l 28 28 q 87 52 63 28 q 111 111 111 76 l 111 778 q 87 837 111 813 q 28 861 63 861 l 28 889 l 306 889 l 306 861 q 247 837 271 861 q 222 778 222 813 l 222 401 l 631 810 q 638 843 646 825 q 610 861 629 861 l 610 889 l 832 889 l 832 861 q 765 848 797 861 q 710 810 733 835 l 364 465 l 758 71 q 805 39 778 50 q 861 28 832 28 l 861 0 z "},"L":{"ha":722,"x_min":28,"x_max":694,"o":"m 694 250 l 694 0 l 28 0 l 28 28 q 87 52 63 28 q 111 111 111 76 l 111 778 q 87 837 111 813 q 28 861 63 861 l 28 889 l 306 889 l 306 861 q 247 837 271 861 q 222 778 222 813 l 222 56 l 472 56 q 548 71 513 56 q 610 113 583 86 q 651 174 636 139 q 667 250 667 210 l 694 250 z "},"M":{"ha":1000,"x_min":28,"x_max":972,"o":"m 972 861 q 913 837 938 861 q 889 778 889 813 l 889 111 q 913 52 889 76 q 972 28 938 28 l 972 0 l 694 0 l 694 28 q 753 52 729 28 q 778 111 778 76 l 778 731 l 504 0 l 444 0 l 167 740 l 167 111 q 191 52 167 76 q 250 28 215 28 l 250 0 l 28 0 l 28 28 q 87 52 63 28 q 111 111 111 76 l 111 778 q 87 837 111 813 q 28 861 63 861 l 28 889 l 229 889 l 504 158 l 778 889 l 972 889 l 972 861 l 972 861 z "},"N":{"ha":889,"x_min":28,"x_max":861,"o":"m 861 889 l 861 861 q 802 837 826 861 q 778 778 778 813 l 778 0 l 722 0 l 167 740 l 167 111 q 191 52 167 76 q 250 28 215 28 l 250 0 l 28 0 l 28 28 q 87 52 63 28 q 111 111 111 76 l 111 815 l 106 822 q 72 851 92 842 q 28 861 51 861 l 28 889 l 194 889 l 722 185 l 722 778 q 698 837 722 813 q 639 861 674 861 l 639 889 l 861 889 z "},"O":{"ha":1000,"x_min":56,"x_max":944,"o":"m 500 903 q 663 878 583 903 q 806 799 743 853 q 906 657 868 744 q 944 444 944 569 q 906 232 944 319 q 806 90 868 144 q 663 11 743 36 q 500 -14 583 -14 q 337 11 417 -14 q 194 90 257 36 q 94 232 132 144 q 56 444 56 319 q 94 657 56 569 q 194 799 132 744 q 337 878 257 853 q 500 903 417 903 m 500 42 q 629 74 572 42 q 726 160 686 106 q 785 288 765 214 q 806 444 806 361 q 785 601 806 528 q 726 729 765 675 q 629 815 686 783 q 500 847 572 847 q 370 815 426 847 q 274 729 314 783 q 215 601 235 675 q 194 444 194 528 q 215 288 194 361 q 274 160 235 214 q 370 74 314 106 q 500 42 426 42 z "},"P":{"ha":806,"x_min":28,"x_max":778,"o":"m 333 889 q 508 873 426 889 q 649 822 589 857 q 744 731 710 786 q 778 597 778 675 q 744 464 778 519 q 649 373 710 408 q 508 322 589 338 q 333 306 426 306 l 222 306 l 222 111 q 247 52 222 76 q 306 28 271 28 l 306 0 l 28 0 l 28 28 q 87 52 63 28 q 111 111 111 76 l 111 778 q 87 837 111 813 q 28 861 63 861 l 28 889 l 333 889 m 333 361 q 440 373 385 361 q 538 412 494 385 q 610 484 582 439 q 639 597 639 529 q 610 710 639 665 q 538 783 582 756 q 440 822 494 810 q 333 833 385 833 l 222 833 l 222 361 l 333 361 z "},"Q":{"ha":1000,"x_min":56,"x_max":944,"o":"m 417 194 q 503 180 465 194 q 573 144 542 165 q 632 97 604 122 q 687 51 660 72 q 742 15 714 29 q 806 0 771 0 q 842 4 826 0 q 868 14 857 8 q 889 28 881 19 l 889 0 q 856 -28 875 -15 q 813 -47 839 -39 q 750 -56 786 -56 q 663 -41 701 -56 q 594 -5 625 -26 q 535 42 563 17 q 480 88 507 67 q 424 124 453 110 q 361 139 396 139 q 327 135 342 139 q 301 126 313 132 q 388 64 339 86 q 500 42 438 42 l 514 42 q 543 16 528 29 q 575 -10 558 3 q 500 -14 538 -14 q 337 11 417 -14 q 194 90 257 36 q 94 232 132 144 q 56 444 56 319 q 94 657 56 569 q 194 799 132 744 q 337 878 257 853 q 500 903 417 903 q 663 878 583 903 q 806 799 743 853 q 906 657 868 744 q 944 444 944 569 q 928 299 944 364 q 883 185 913 235 q 815 98 854 135 q 728 38 775 61 q 693 63 710 49 q 658 92 676 76 q 768 238 731 144 q 806 444 806 331 q 785 601 806 528 q 726 729 765 675 q 629 815 686 783 q 500 847 572 847 q 370 815 426 847 q 274 729 314 783 q 215 601 235 675 q 194 444 194 528 q 217 278 194 356 q 285 146 240 201 q 328 176 296 157 q 417 194 360 194 z "},"R":{"ha":833,"x_min":28,"x_max":806,"o":"m 806 0 l 633 0 l 429 310 q 333 306 383 306 l 222 306 l 222 111 q 247 52 222 76 q 306 28 271 28 l 306 0 l 28 0 l 28 28 q 87 52 63 28 q 111 111 111 76 l 111 778 q 87 837 111 813 q 28 861 63 861 l 28 889 l 333 889 q 508 873 426 889 q 649 822 589 857 q 744 731 710 786 q 778 597 778 675 q 715 426 778 490 q 549 332 651 361 l 717 76 q 755 40 732 53 q 806 28 778 28 l 806 0 m 333 361 q 440 373 385 361 q 538 412 494 385 q 610 484 582 439 q 639 597 639 529 q 610 710 639 665 q 538 783 582 756 q 440 822 494 810 q 333 833 385 833 l 222 833 l 222 361 l 333 361 z "},"S":{"ha":778,"x_min":56,"x_max":722,"o":"m 639 639 q 569 743 608 697 q 486 815 535 782 q 375 847 438 847 q 243 801 292 847 q 194 681 194 754 q 217 599 194 631 q 277 547 240 568 q 361 512 314 525 q 458 485 408 499 q 556 453 508 471 q 640 409 603 436 q 699 340 676 382 q 722 236 722 299 q 700 133 722 179 q 639 53 678 86 q 547 3 600 21 q 431 -14 493 -14 q 306 9 363 -14 q 206 64 250 32 q 165 78 186 78 q 125 69 143 78 q 95 42 107 60 q 83 0 83 24 l 56 0 l 56 250 l 83 250 q 181 153 128 196 q 283 86 225 117 q 403 56 340 56 q 535 95 486 56 q 583 208 583 135 q 560 282 583 253 q 501 331 538 311 q 417 365 464 350 q 319 394 369 379 q 222 428 269 410 q 138 476 175 447 q 78 548 101 506 q 56 653 56 590 q 78 750 56 704 q 139 830 100 796 q 231 883 178 864 q 347 903 285 903 q 461 884 413 903 q 544 840 510 865 q 575 829 558 829 q 606 836 592 829 q 630 857 621 843 q 639 889 639 871 l 667 889 l 667 639 l 639 639 l 639 639 z "},"T":{"ha":778,"x_min":28,"x_max":750,"o":"m 750 889 l 750 639 l 722 639 q 711 715 722 679 q 679 776 700 750 q 627 818 658 803 q 556 833 596 833 l 444 833 l 444 111 q 469 52 444 76 q 528 28 493 28 l 528 0 l 250 0 l 250 28 q 309 52 285 28 q 333 111 333 76 l 333 833 l 278 833 q 198 818 238 833 q 126 776 158 803 q 75 715 94 750 q 56 639 56 679 l 28 639 l 28 889 l 750 889 z "},"U":{"ha":917,"x_min":28,"x_max":889,"o":"m 889 889 l 889 861 q 830 837 854 861 q 806 778 806 813 l 806 333 q 781 185 806 250 q 710 76 756 121 q 600 9 664 32 q 458 -14 536 -14 q 317 9 381 -14 q 207 76 253 32 q 136 185 161 121 q 111 333 111 250 l 111 778 q 87 837 111 813 q 28 861 63 861 l 28 889 l 306 889 l 306 861 q 247 837 271 861 q 222 778 222 813 l 222 333 q 238 228 222 281 q 287 135 254 176 q 369 67 319 93 q 486 42 418 42 q 603 67 554 42 q 685 135 653 93 q 734 228 718 176 q 750 333 750 281 l 750 778 q 726 837 750 813 q 667 861 701 861 l 667 889 l 889 889 z "},"V":{"ha":847,"x_min":0,"x_max":847,"o":"m 847 889 l 847 861 q 785 842 813 861 q 744 790 757 822 l 449 0 l 389 0 l 89 799 q 54 844 78 826 q 0 861 31 861 l 0 889 l 278 889 l 278 861 q 225 833 244 861 q 217 774 206 806 l 449 158 l 682 779 q 685 809 688 794 q 674 835 682 824 q 653 854 667 847 q 625 861 640 861 l 625 889 l 847 889 z "},"W":{"ha":1319,"x_min":0,"x_max":1319,"o":"m 1319 889 l 1319 861 q 1257 842 1285 861 q 1217 790 1229 822 l 921 0 l 861 0 l 654 550 l 449 0 l 389 0 l 89 799 q 54 844 78 826 q 0 861 31 861 l 0 889 l 278 889 l 278 861 q 225 833 244 861 q 217 774 206 806 l 449 158 l 625 629 l 561 799 q 526 844 550 826 q 472 861 503 861 l 472 889 l 750 889 l 750 861 q 697 833 717 861 q 689 774 678 806 l 921 158 l 1154 779 q 1157 809 1160 794 q 1147 835 1154 824 q 1126 854 1139 847 q 1097 861 1113 861 l 1097 889 l 1319 889 z "},"X":{"ha":861,"x_min":0,"x_max":861,"o":"m 861 861 q 781 842 818 861 q 718 789 743 824 l 482 468 l 725 101 q 784 47 749 67 q 861 28 819 28 l 861 0 l 583 0 l 583 28 q 610 44 601 28 q 608 75 619 60 l 411 372 l 196 79 q 194 45 185 63 q 222 28 203 28 l 222 0 l 0 0 l 0 28 q 81 47 43 28 q 143 100 118 65 l 379 421 l 136 788 q 76 842 113 822 q 0 861 40 861 l 0 889 l 278 889 l 278 861 q 251 845 260 861 q 253 814 242 829 l 449 517 l 665 810 q 667 843 676 825 q 639 861 658 861 l 639 889 l 861 889 l 861 861 l 861 861 z "},"Y":{"ha":861,"x_min":0,"x_max":861,"o":"m 861 889 l 861 861 q 781 842 818 861 q 718 789 743 824 l 472 454 l 472 97 q 492 48 472 68 q 542 28 513 28 l 542 0 l 292 0 l 292 28 q 341 48 321 28 q 361 97 361 68 l 361 449 l 136 788 q 76 842 113 822 q 0 861 40 861 l 0 889 l 278 889 l 278 861 q 251 845 260 861 q 253 814 242 829 l 449 517 l 665 810 q 667 843 676 825 q 639 861 658 861 l 639 889 l 861 889 z "},"Z":{"ha":833,"x_min":56,"x_max":778,"o":"m 778 250 l 778 0 l 56 0 l 56 56 l 603 833 l 278 833 q 202 818 238 833 q 140 776 167 803 q 99 715 114 750 q 83 639 83 679 l 56 639 l 56 889 l 778 889 l 192 56 l 556 56 q 631 71 596 56 q 693 113 667 86 q 735 174 719 139 q 750 250 750 210 l 778 250 z "},"a":{"ha":694,"x_min":0,"x_max":694,"o":"m 586 103 q 628 48 599 68 q 694 28 658 28 l 694 0 l 417 0 l 417 28 q 463 51 446 28 q 468 101 479 75 l 444 167 l 190 167 l 168 106 q 165 78 163 92 q 174 53 167 64 q 194 35 182 42 q 222 28 207 28 l 222 0 l 0 0 l 0 28 q 65 48 36 28 q 107 103 94 68 l 315 667 l 375 667 l 586 103 m 424 222 l 317 507 l 211 222 l 424 222 z "},"b":{"ha":667,"x_min":28,"x_max":639,"o":"m 490 367 q 639 194 639 321 q 556 50 639 100 q 306 0 474 0 l 28 0 l 28 28 q 87 52 63 28 q 111 111 111 76 l 111 556 q 87 615 111 590 q 28 639 63 639 l 28 667 l 278 667 q 509 625 435 667 q 583 500 583 583 q 490 367 583 406 m 222 389 l 278 389 q 403 418 361 389 q 444 500 444 447 q 403 582 444 553 q 278 611 361 611 l 222 611 l 222 389 m 306 56 q 394 67 357 56 q 455 99 432 79 q 489 143 478 118 q 500 194 500 168 q 489 246 500 221 q 455 290 478 271 q 394 322 432 310 q 306 333 357 333 l 222 333 l 222 56 l 306 56 z "},"c":{"ha":722,"x_min":56,"x_max":667,"o":"m 667 181 q 556 35 631 85 q 389 -14 482 -14 q 267 5 326 -14 q 160 65 207 24 q 84 173 113 107 q 56 333 56 239 q 84 492 56 426 q 160 600 113 558 q 267 661 207 642 q 389 681 326 681 q 563 626 488 681 q 588 618 575 618 q 613 624 601 618 q 631 640 624 629 q 639 667 639 651 l 667 667 l 667 444 l 639 444 q 556 576 611 526 q 431 625 501 625 q 329 603 374 625 q 255 542 285 581 q 210 449 225 503 q 194 333 194 396 q 210 217 194 271 q 255 125 225 164 q 329 64 285 86 q 431 42 374 42 q 550 79 493 42 q 639 181 607 117 l 667 181 z "},"d":{"ha":750,"x_min":28,"x_max":694,"o":"m 306 667 q 448 653 378 667 q 573 604 518 640 q 661 503 628 568 q 694 333 694 438 q 661 164 694 229 q 573 63 628 99 q 448 13 518 26 q 306 0 378 0 l 28 0 l 28 28 q 87 52 63 28 q 111 111 111 76 l 111 556 q 87 615 111 590 q 28 639 63 639 l 28 667 l 306 667 m 306 56 q 403 72 357 56 q 483 122 449 88 q 536 208 517 156 q 556 333 556 260 q 536 458 556 406 q 483 545 517 511 q 403 595 449 579 q 306 611 357 611 l 222 611 l 222 56 l 306 56 z "},"e":{"ha":639,"x_min":28,"x_max":583,"o":"m 556 444 q 542 509 556 479 q 506 562 529 539 q 453 598 483 585 q 389 611 424 611 l 222 611 l 222 361 l 333 361 q 392 385 368 361 q 417 444 417 410 l 444 444 l 444 222 l 417 222 q 392 281 417 257 q 333 306 368 306 l 222 306 l 222 56 l 389 56 q 453 69 424 56 q 506 105 483 82 q 542 158 529 128 q 556 222 556 188 l 583 222 l 583 0 l 28 0 l 28 28 q 87 52 63 28 q 111 111 111 76 l 111 556 q 87 615 111 590 q 28 639 63 639 l 28 667 l 583 667 l 583 444 l 556 444 z "},"f":{"ha":611,"x_min":28,"x_max":583,"o":"m 583 667 l 583 444 l 556 444 q 542 509 556 479 q 506 562 529 539 q 453 598 483 585 q 389 611 424 611 l 222 611 l 222 361 l 333 361 q 392 385 368 361 q 417 444 417 410 l 444 444 l 444 222 l 417 222 q 392 281 417 257 q 333 306 368 306 l 222 306 l 222 111 q 247 52 222 76 q 306 28 271 28 l 306 0 l 28 0 l 28 28 q 87 52 63 28 q 111 111 111 76 l 111 556 q 87 615 111 590 q 28 639 63 639 l 28 667 l 583 667 z "},"g":{"ha":750,"x_min":56,"x_max":722,"o":"m 722 333 l 722 306 q 683 290 699 306 q 667 250 667 274 l 667 111 q 600 49 639 75 q 514 6 565 25 q 389 -14 463 -14 q 267 5 326 -14 q 160 65 207 24 q 84 173 113 107 q 56 333 56 239 q 84 492 56 426 q 160 600 113 558 q 267 661 207 642 q 389 681 326 681 q 563 626 488 681 q 588 618 575 618 q 613 624 601 618 q 631 640 624 629 q 639 667 639 651 l 667 667 l 667 444 l 639 444 q 556 576 611 526 q 431 625 501 625 q 329 603 374 625 q 255 542 285 581 q 210 449 225 503 q 194 333 194 396 q 210 217 194 271 q 255 125 225 164 q 329 64 285 86 q 431 42 374 42 q 485 48 463 42 q 524 63 508 54 q 556 83 542 71 l 556 250 q 540 290 556 274 q 500 306 524 306 l 500 333 l 722 333 z "},"h":{"ha":722,"x_min":28,"x_max":694,"o":"m 694 639 q 635 615 660 639 q 611 556 611 590 l 611 111 q 635 52 611 76 q 694 28 660 28 l 694 0 l 417 0 l 417 28 q 476 52 451 28 q 500 111 500 76 l 500 306 l 222 306 l 222 111 q 247 52 222 76 q 306 28 271 28 l 306 0 l 28 0 l 28 28 q 87 52 63 28 q 111 111 111 76 l 111 556 q 87 615 111 590 q 28 639 63 639 l 28 667 l 306 667 l 306 639 q 247 615 271 639 q 222 556 222 590 l 222 361 l 500 361 l 500 556 q 476 615 500 590 q 417 639 451 639 l 417 667 l 694 667 l 694 639 l 694 639 z "},"i":{"ha":333,"x_min":28,"x_max":306,"o":"m 222 111 q 247 52 222 76 q 306 28 271 28 l 306 0 l 28 0 l 28 28 q 87 52 63 28 q 111 111 111 76 l 111 556 q 87 615 111 590 q 28 639 63 639 l 28 667 l 306 667 l 306 639 q 247 615 271 639 q 222 556 222 590 l 222 111 l 222 111 z "},"j":{"ha":500,"x_min":28,"x_max":472,"o":"m 472 667 l 472 639 q 413 615 438 639 q 389 556 389 590 l 389 181 q 378 115 389 149 q 344 52 367 81 q 283 5 321 24 q 194 -14 246 -14 q 133 -2 163 -14 q 80 31 103 10 q 42 79 57 51 q 28 139 28 107 q 52 198 28 174 q 111 222 76 222 q 170 198 146 222 q 194 139 194 174 q 179 90 194 111 q 140 61 164 69 q 194 42 163 42 q 257 71 236 42 q 278 153 278 100 l 278 556 q 253 615 278 590 q 194 639 229 639 l 194 667 l 472 667 z "},"k":{"ha":722,"x_min":28,"x_max":722,"o":"m 722 0 l 444 0 l 444 28 q 467 43 461 28 q 463 71 474 58 l 274 260 l 222 208 l 222 111 q 247 52 222 76 q 306 28 271 28 l 306 0 l 28 0 l 28 28 q 87 52 63 28 q 111 111 111 76 l 111 556 q 87 615 111 590 q 28 639 63 639 l 28 667 l 306 667 l 306 639 q 247 615 271 639 q 222 556 222 590 l 222 292 l 521 590 q 527 622 535 604 q 500 639 519 639 l 500 667 l 722 667 l 722 639 q 604 590 653 639 l 351 338 l 619 71 q 666 39 639 50 q 722 28 693 28 l 722 0 z "},"l":{"ha":611,"x_min":28,"x_max":583,"o":"m 583 222 l 583 0 l 28 0 l 28 28 q 87 52 63 28 q 111 111 111 76 l 111 556 q 87 615 111 590 q 28 639 63 639 l 28 667 l 306 667 l 306 639 q 247 615 271 639 q 222 556 222 590 l 222 56 l 389 56 q 453 69 424 56 q 506 105 483 82 q 542 158 529 128 q 556 222 556 188 l 583 222 z "},"m":{"ha":833,"x_min":28,"x_max":806,"o":"m 806 639 q 747 615 771 639 q 722 556 722 590 l 722 111 q 747 52 722 76 q 806 28 771 28 l 806 0 l 528 0 l 528 28 q 587 52 563 28 q 611 111 611 76 l 611 508 l 421 0 l 361 0 l 167 503 l 167 111 q 191 52 167 76 q 250 28 215 28 l 250 0 l 28 0 l 28 28 q 87 52 63 28 q 111 111 111 76 l 111 556 q 87 615 111 590 q 28 639 63 639 l 28 667 l 222 667 l 419 156 l 611 667 l 806 667 l 806 639 l 806 639 z "},"n":{"ha":722,"x_min":28,"x_max":694,"o":"m 694 667 l 694 639 q 635 615 660 639 q 611 556 611 590 l 611 0 l 556 0 l 167 518 l 167 111 q 191 52 167 76 q 250 28 215 28 l 250 0 l 28 0 l 28 28 q 87 52 63 28 q 111 111 111 76 l 111 593 l 106 600 q 72 629 92 619 q 28 639 51 639 l 28 667 l 194 667 l 556 185 l 556 556 q 531 615 556 590 q 472 639 507 639 l 472 667 l 694 667 z "},"o":{"ha":778,"x_min":56,"x_max":722,"o":"m 389 681 q 511 661 451 681 q 618 600 571 642 q 694 492 665 558 q 722 333 722 426 q 694 173 722 239 q 618 65 665 107 q 511 5 571 24 q 389 -14 451 -14 q 267 5 326 -14 q 160 65 207 24 q 84 173 113 107 q 56 333 56 239 q 84 492 56 426 q 160 600 113 558 q 267 661 207 642 q 389 681 326 681 m 389 42 q 460 58 425 42 q 523 109 496 74 q 567 200 550 144 q 583 333 583 256 q 567 467 583 411 q 523 558 550 522 q 460 609 496 593 q 389 625 425 625 q 317 609 353 625 q 255 558 282 593 q 211 467 228 522 q 194 333 194 411 q 211 200 194 256 q 255 109 228 144 q 317 58 282 74 q 389 42 353 42 z "},"p":{"ha":667,"x_min":28,"x_max":639,"o":"m 306 667 q 556 608 474 667 q 639 444 639 549 q 556 281 639 340 q 306 222 474 222 l 222 222 l 222 111 q 247 52 222 76 q 306 28 271 28 l 306 0 l 28 0 l 28 28 q 87 52 63 28 q 111 111 111 76 l 111 556 q 87 615 111 590 q 28 639 63 639 l 28 667 l 306 667 m 306 278 q 400 294 363 278 q 460 335 438 310 q 491 389 482 360 q 500 444 500 418 q 491 500 500 471 q 460 554 482 529 q 400 595 438 579 q 306 611 363 611 l 222 611 l 222 278 l 306 278 z "},"q":{"ha":778,"x_min":56,"x_max":722,"o":"m 361 153 q 459 131 424 153 q 521 83 494 110 q 572 35 547 57 q 639 14 597 14 q 682 21 668 14 q 694 28 689 24 l 694 0 q 669 -21 685 -12 q 635 -35 656 -29 q 583 -42 615 -42 q 485 -20 521 -42 q 424 28 450 1 q 372 76 397 54 q 306 97 347 97 q 269 93 282 97 q 326 53 296 65 q 389 42 357 42 l 390 42 l 403 29 q 444 -10 419 11 q 389 -14 417 -14 q 267 5 326 -14 q 160 65 207 24 q 84 173 113 107 q 56 333 56 239 q 84 492 56 426 q 160 600 113 558 q 267 661 207 642 q 389 681 326 681 q 511 661 451 681 q 618 600 571 642 q 694 492 665 558 q 722 333 722 426 q 685 153 722 225 q 588 42 647 82 q 564 60 575 49 q 542 82 553 71 q 531 94 536 89 q 518 104 525 99 q 565 196 547 140 q 583 333 583 251 q 567 467 583 411 q 523 558 550 522 q 460 609 496 593 q 389 625 425 625 q 317 609 353 625 q 255 558 282 593 q 211 467 228 522 q 194 333 194 411 q 210 203 194 257 q 251 114 225 150 q 283 137 258 121 q 361 153 308 153 z "},"r":{"ha":694,"x_min":28,"x_max":667,"o":"m 576 76 q 615 40 592 53 q 667 28 639 28 l 667 0 l 494 0 l 347 224 q 326 222 336 222 q 306 222 317 222 l 222 222 l 222 111 q 247 52 222 76 q 306 28 271 28 l 306 0 l 28 0 l 28 28 q 87 52 63 28 q 111 111 111 76 l 111 556 q 87 615 111 590 q 28 639 63 639 l 28 667 l 306 667 q 556 608 474 667 q 639 444 639 549 q 597 317 639 369 q 468 242 554 265 l 576 76 m 306 278 q 400 294 363 278 q 460 335 438 310 q 491 389 482 360 q 500 444 500 418 q 491 500 500 471 q 460 554 482 529 q 400 595 438 579 q 306 611 363 611 l 222 611 l 222 278 l 306 278 z "},"s":{"ha":611,"x_min":56,"x_max":556,"o":"m 500 444 q 454 535 481 494 q 394 597 431 568 q 306 625 358 625 q 229 596 264 625 q 194 514 194 567 q 222 439 194 465 q 288 397 249 413 q 375 368 328 381 q 462 335 422 356 q 528 278 501 314 q 556 181 556 243 q 538 103 556 139 q 491 42 521 68 q 421 1 461 15 q 333 -14 381 -14 q 240 2 281 -14 q 171 42 200 18 q 142 53 157 51 q 113 48 126 54 q 92 29 100 42 q 83 0 83 17 l 56 0 l 56 222 l 83 222 q 147 139 111 175 q 218 81 178 107 q 306 56 258 56 q 388 83 358 56 q 417 153 417 111 q 390 218 417 194 q 323 258 363 242 q 236 288 283 274 q 149 326 189 303 q 83 386 110 349 q 56 486 56 424 q 73 563 56 528 q 120 625 90 599 q 190 666 150 651 q 278 681 231 681 q 367 667 331 681 q 428 632 403 653 q 451 623 439 624 q 475 627 464 622 q 493 642 486 632 q 500 667 500 653 l 528 667 l 528 444 l 500 444 l 500 444 z "},"t":{"ha":611,"x_min":28,"x_max":583,"o":"m 583 667 l 583 444 l 556 444 q 542 509 556 479 q 506 562 529 539 q 453 598 483 585 q 389 611 424 611 l 361 611 l 361 111 q 385 52 361 76 q 444 28 410 28 l 444 0 l 167 0 l 167 28 q 226 52 201 28 q 250 111 250 76 l 250 611 l 222 611 q 158 598 188 611 q 105 562 128 585 q 69 509 82 539 q 56 444 56 479 l 28 444 l 28 667 l 583 667 z "},"u":{"ha":750,"x_min":28,"x_max":722,"o":"m 722 667 l 722 639 q 663 615 688 639 q 639 556 639 590 l 639 250 q 619 144 639 193 q 565 60 600 96 q 481 6 529 25 q 375 -14 432 -14 q 269 6 318 -14 q 185 60 221 25 q 131 144 150 96 q 111 250 111 193 l 111 556 q 87 615 111 590 q 28 639 63 639 l 28 667 l 306 667 l 306 639 q 247 615 271 639 q 222 556 222 590 l 222 250 q 237 175 222 208 q 276 118 251 142 q 334 82 301 94 q 403 69 367 69 q 472 82 439 69 q 529 118 504 94 q 569 175 554 142 q 583 250 583 208 l 583 556 q 559 615 583 590 q 500 639 535 639 l 500 667 l 722 667 z "},"v":{"ha":694,"x_min":0,"x_max":694,"o":"m 694 667 l 694 639 q 632 619 660 639 q 592 568 604 600 l 379 0 l 319 0 l 99 571 q 60 621 88 603 q 0 639 32 639 l 0 667 l 278 667 l 278 639 q 228 613 246 639 q 222 558 211 588 l 378 156 l 529 557 q 532 587 535 572 q 522 613 529 601 q 501 632 514 625 q 472 639 488 639 l 472 667 l 694 667 z "},"w":{"ha":1056,"x_min":0,"x_max":1056,"o":"m 1056 667 l 1056 639 q 993 619 1021 639 q 953 568 965 600 l 740 0 l 681 0 l 528 396 l 379 0 l 319 0 l 99 571 q 60 621 88 603 q 0 639 32 639 l 0 667 l 278 667 l 278 639 q 228 613 246 639 q 222 558 211 588 l 378 156 l 497 474 l 460 571 q 421 621 449 603 q 361 639 393 639 l 361 667 l 639 667 l 639 639 q 590 613 607 639 q 583 558 572 588 l 739 156 l 890 557 q 893 587 896 572 q 883 613 890 601 q 862 632 875 625 q 833 639 849 639 l 833 667 l 1056 667 z "},"x":{"ha":694,"x_min":0,"x_max":694,"o":"m 694 639 q 615 620 653 639 q 553 567 578 601 l 399 357 l 575 92 q 626 44 594 61 q 694 28 658 28 l 694 0 l 417 0 l 417 28 q 449 47 439 28 q 447 83 458 65 l 329 261 l 196 79 q 194 46 185 64 q 222 28 203 28 l 222 0 l 0 0 l 0 28 q 79 47 42 28 q 142 99 117 65 l 296 310 l 119 575 q 68 622 100 606 q 0 639 36 639 l 0 667 l 278 667 l 278 639 q 246 620 256 639 q 247 583 236 601 l 365 406 l 499 586 q 501 621 510 603 q 472 639 492 639 l 472 667 l 694 667 l 694 639 l 694 639 z "},"y":{"ha":694,"x_min":0,"x_max":694,"o":"m 694 667 l 694 639 q 615 620 653 639 q 553 567 578 601 l 389 343 l 389 111 q 413 52 389 76 q 472 28 438 28 l 472 0 l 194 0 l 194 28 q 253 52 229 28 q 278 111 278 76 l 278 338 l 119 575 q 68 622 100 606 q 0 639 36 639 l 0 667 l 278 667 l 278 639 q 246 620 256 639 q 247 583 236 601 l 365 406 l 499 586 q 501 621 510 603 q 472 639 492 639 l 472 667 l 694 667 z "},"z":{"ha":667,"x_min":56,"x_max":611,"o":"m 611 222 l 611 0 l 56 0 l 56 42 l 439 611 l 250 611 q 185 598 215 611 q 133 562 156 585 q 97 509 110 539 q 83 444 83 479 l 56 444 l 56 667 l 611 667 l 200 56 l 417 56 q 481 69 451 56 q 534 105 511 82 q 570 158 557 128 q 583 222 583 188 l 611 222 z "},"%":{"ha":1000,"x_min":28,"x_max":972,"o":"m 778 458 q 855 441 819 458 q 917 392 890 424 q 958 317 943 361 q 972 222 972 274 q 958 126 972 169 q 917 52 943 83 q 855 3 890 21 q 778 -14 819 -14 q 701 3 736 -14 q 639 52 665 21 q 598 126 613 83 q 583 222 583 169 q 598 317 583 274 q 639 392 613 361 q 701 441 665 424 q 778 458 736 458 m 778 42 q 808 50 793 42 q 835 79 824 58 q 854 135 847 100 q 861 222 861 169 q 854 308 861 274 q 835 364 847 343 q 808 394 824 385 q 778 403 793 403 q 747 394 763 403 q 720 364 732 385 q 701 308 708 343 q 694 222 694 274 q 701 135 694 169 q 720 79 708 100 q 747 50 732 58 q 778 42 763 42 m 417 667 q 402 571 417 614 q 361 497 388 528 q 299 448 335 465 q 222 431 264 431 q 145 448 181 431 q 83 497 110 465 q 42 571 57 528 q 28 667 28 614 q 42 762 28 718 q 83 837 57 806 q 145 885 110 868 q 222 903 181 903 q 299 885 264 903 q 361 837 335 868 q 402 762 388 806 q 417 667 417 718 m 222 486 q 253 494 238 486 q 280 524 268 503 q 299 579 292 544 q 306 667 306 614 q 299 753 306 718 q 280 808 292 788 q 253 838 268 829 q 222 847 238 847 q 192 838 207 847 q 165 808 176 829 q 146 753 153 788 q 139 667 139 718 q 146 579 139 614 q 165 524 153 544 q 192 494 176 503 q 222 486 207 486 m 750 889 l 313 0 l 250 0 l 688 889 l 750 889 z "},"½":{"ha":875,"x_min":28,"x_max":847,"o":"m 639 889 l 201 0 l 139 0 l 576 889 l 639 889 m 250 444 l 28 444 l 28 472 q 67 488 51 472 q 83 528 83 504 l 83 750 l 28 750 l 28 778 q 106 810 74 778 q 139 889 139 843 l 194 889 l 194 750 l 194 528 q 210 488 194 504 q 250 472 226 472 l 250 444 m 847 139 l 847 0 l 597 0 l 486 0 q 505 91 486 56 q 551 151 524 126 q 611 191 579 175 q 671 224 643 207 q 717 263 699 242 q 736 319 736 285 q 717 377 736 351 q 667 403 699 403 q 616 377 635 403 q 597 319 597 351 q 581 280 597 296 q 542 264 565 264 q 502 280 518 264 q 486 319 486 296 q 499 371 486 346 q 535 415 511 396 q 592 447 558 435 q 667 458 625 458 q 735 446 703 458 q 793 413 768 433 q 833 364 818 392 q 847 306 847 336 q 819 209 847 244 q 752 149 790 174 q 674 106 714 125 q 614 56 635 86 l 736 56 q 795 80 771 56 q 819 139 819 104 l 847 139 z "},"¼":{"ha":806,"x_min":28,"x_max":778,"o":"m 639 889 l 201 0 l 139 0 l 576 889 l 639 889 m 250 444 l 28 444 l 28 472 q 67 488 51 472 q 83 528 83 504 l 83 750 l 28 750 l 28 778 q 106 810 74 778 q 139 889 139 843 l 194 889 l 194 750 l 194 528 q 210 488 194 504 q 250 472 226 472 l 250 444 m 722 111 l 722 83 q 738 44 722 60 q 778 28 754 28 l 778 0 l 556 0 l 556 28 q 595 44 579 28 q 611 83 611 60 l 611 111 l 417 111 l 417 167 l 667 444 l 722 444 l 722 167 l 778 167 l 778 111 l 722 111 m 611 167 l 611 294 l 496 167 l 611 167 z "},"¾":{"ha":917,"x_min":28,"x_max":889,"o":"m 750 889 l 313 0 l 250 0 l 688 889 l 750 889 m 833 111 l 833 83 q 849 44 833 60 q 889 28 865 28 l 889 0 l 667 0 l 667 28 q 706 44 690 28 q 722 83 722 60 l 722 111 l 528 111 l 528 167 l 778 444 l 833 444 l 833 167 l 889 167 l 889 111 l 833 111 m 722 167 l 722 294 l 607 167 l 722 167 m 389 583 q 374 524 389 551 q 335 475 360 496 q 277 442 310 454 q 208 431 244 431 q 127 442 161 431 q 71 474 93 454 q 38 518 49 493 q 28 569 28 543 q 44 609 28 593 q 83 625 60 625 q 123 609 107 625 q 139 569 139 593 q 158 512 139 538 q 208 486 176 486 q 242 495 229 486 q 264 519 256 504 q 275 551 272 533 q 278 583 278 568 q 242 670 278 646 q 153 694 206 694 l 153 736 l 218 833 l 125 833 q 73 809 90 833 q 56 750 56 785 l 28 750 l 28 889 l 389 889 l 275 719 q 357 671 325 704 q 389 583 389 638 z "},"№":{"ha":1333,"x_min":28,"x_max":1306,"o":"m 861 56 l 1306 56 l 1306 0 l 861 0 l 861 56 m 1083 208 q 1001 222 1042 208 q 930 264 961 235 q 880 338 899 293 q 861 444 861 382 q 880 551 861 507 q 930 625 899 596 q 1001 667 961 654 q 1083 681 1042 681 q 1165 667 1125 681 q 1235 625 1204 654 q 1286 551 1267 596 q 1306 444 1306 507 q 1286 338 1306 382 q 1235 264 1267 293 q 1165 222 1204 235 q 1083 208 1125 208 m 1083 625 q 1049 616 1068 625 q 1013 586 1029 607 q 984 531 996 565 q 972 444 972 496 q 984 357 972 392 q 1013 301 996 322 q 1049 272 1029 281 q 1083 264 1068 264 q 1118 272 1099 264 q 1154 301 1138 281 q 1183 357 1171 322 q 1194 444 1194 392 q 1183 531 1194 496 q 1154 586 1171 565 q 1118 616 1138 607 q 1083 625 1099 625 m 861 889 l 861 861 q 802 837 826 861 q 778 778 778 813 l 778 0 l 722 0 l 167 740 l 167 111 q 191 52 167 76 q 250 28 215 28 l 250 0 l 28 0 l 28 28 q 87 52 63 28 q 111 111 111 76 l 111 815 l 106 822 q 72 851 92 842 q 28 861 51 861 l 28 889 l 194 889 l 722 185 l 722 778 q 698 837 722 813 q 639 861 674 861 l 639 889 l 861 889 z "},"€":{"ha":972,"x_min":56,"x_max":917,"o":"m 611 847 q 470 823 529 847 q 372 756 411 799 q 310 654 332 713 q 282 528 289 596 l 722 528 l 694 472 l 278 472 l 278 444 l 278 417 l 667 417 l 639 361 l 283 361 q 321 235 293 293 q 392 133 349 176 q 494 66 436 90 q 625 42 553 42 q 748 69 699 42 q 829 132 797 97 q 889 222 865 171 l 917 222 q 849 104 893 156 q 804 60 829 82 q 747 22 779 39 q 674 -4 714 6 q 583 -14 633 -14 q 434 7 507 -14 q 301 72 361 28 q 199 188 240 117 q 144 361 157 260 l 56 361 l 56 417 l 139 417 l 139 444 l 139 472 l 56 472 l 56 528 l 144 528 q 199 701 157 629 q 301 817 240 772 q 434 882 361 861 q 583 903 507 903 q 706 884 654 903 q 793 839 757 865 q 825 828 808 828 q 856 835 842 828 q 880 857 871 843 q 889 889 889 871 l 917 889 l 917 639 l 889 639 q 833 743 869 697 q 748 815 801 782 q 611 847 694 847 z "},"$":{"ha":778,"x_min":56,"x_max":722,"o":"m 417 496 q 525 464 471 481 q 623 420 579 447 q 694 349 667 393 q 722 236 722 306 q 700 133 722 179 q 639 53 678 86 q 547 3 600 21 q 431 -14 493 -14 l 417 -14 l 417 -111 l 361 -111 l 361 -7 q 277 22 317 3 q 206 64 238 40 q 165 78 186 78 q 125 69 143 78 q 95 42 107 60 q 83 0 83 24 l 56 0 l 56 250 l 83 250 q 165 165 119 204 q 253 101 203 132 q 361 60 304 71 l 361 382 q 252 416 307 397 q 153 464 197 435 q 83 538 110 493 q 56 653 56 583 q 78 750 56 704 q 139 830 100 796 q 231 883 178 864 q 347 903 285 903 l 361 903 l 361 1000 l 417 1000 l 417 896 q 488 874 457 889 q 544 840 519 858 q 575 829 558 829 q 606 836 592 829 q 630 857 621 843 q 639 889 639 871 l 667 889 l 667 639 l 639 639 q 581 729 614 688 q 511 799 553 765 q 417 843 469 832 l 417 496 m 194 681 q 208 617 194 643 q 243 571 221 590 q 296 538 265 551 q 361 513 326 524 l 361 847 q 239 797 283 843 q 194 681 194 751 m 417 56 q 539 98 494 58 q 583 208 583 138 q 570 266 583 242 q 535 308 557 290 q 482 340 513 326 q 417 365 451 354 l 417 56 z "},"¢":{"ha":722,"x_min":56,"x_max":667,"o":"m 417 625 l 417 42 l 431 42 q 550 79 493 42 q 639 181 607 117 l 667 181 q 567 44 633 93 q 417 -12 500 -6 l 417 -111 l 361 -111 l 361 -12 q 247 13 303 -8 q 149 75 192 33 q 81 181 107 117 q 56 333 56 244 q 81 486 56 422 q 149 592 107 550 q 247 654 192 633 q 361 679 303 675 l 361 778 l 417 778 l 417 679 q 563 626 497 672 q 588 618 575 618 q 613 624 601 618 q 631 640 624 629 q 639 667 639 651 l 667 667 l 667 444 l 653 444 l 639 444 q 556 576 611 526 q 431 625 501 625 l 417 625 m 361 615 q 237 515 279 592 q 194 333 194 438 q 237 152 194 229 q 361 51 279 75 l 361 615 z "},"£":{"ha":778,"x_min":56,"x_max":722,"o":"m 444 625 q 456 595 444 607 q 486 583 468 583 q 513 591 499 583 q 540 613 528 599 q 561 648 553 628 q 569 694 569 668 q 559 746 569 721 q 529 790 549 771 q 481 822 510 810 q 417 833 453 833 q 344 817 375 833 q 292 773 313 800 q 260 710 271 746 q 250 639 250 675 q 265 531 250 582 q 292 417 279 481 l 444 417 l 444 361 l 300 361 q 304 322 303 342 q 306 278 306 301 q 284 139 306 194 q 244 56 263 83 l 500 56 q 576 71 540 56 q 638 113 611 86 q 679 174 664 139 q 694 250 694 210 l 722 250 l 722 0 l 56 0 l 56 28 q 131 53 99 28 q 175 119 164 79 q 189 190 183 150 q 194 278 194 229 q 193 322 194 301 q 189 361 192 342 l 56 361 l 56 417 l 179 417 q 165 467 172 443 q 153 513 158 490 q 143 560 147 536 q 139 611 139 583 q 157 727 139 674 q 208 819 175 781 q 291 881 242 858 q 403 903 340 903 q 554 846 497 903 q 611 694 611 789 q 573 587 611 632 q 472 542 535 542 q 394 570 426 542 q 361 639 361 599 q 381 688 361 668 q 431 708 401 708 l 486 667 q 456 655 468 667 q 444 625 444 643 z "},"¥":{"ha":861,"x_min":0,"x_max":861,"o":"m 861 889 l 861 861 q 781 842 818 861 q 718 789 743 824 l 472 454 l 472 417 l 667 417 l 667 361 l 472 361 l 472 306 l 667 306 l 667 250 l 472 250 l 472 97 q 492 48 472 68 q 542 28 513 28 l 542 0 l 292 0 l 292 28 q 341 48 321 28 q 361 97 361 68 l 361 250 l 167 250 l 167 306 l 361 306 l 361 361 l 167 361 l 167 417 l 361 417 l 361 449 l 136 788 q 76 842 113 822 q 0 861 40 861 l 0 889 l 278 889 l 278 861 q 251 845 260 861 q 253 814 242 829 l 449 517 l 665 810 q 667 843 676 825 q 639 861 658 861 l 639 889 l 861 889 z "},"&":{"ha":861,"x_min":56,"x_max":833,"o":"m 750 625 q 720 613 732 625 q 708 583 708 601 l 667 639 q 687 688 667 668 q 736 708 707 708 q 805 676 776 708 q 833 597 833 643 q 818 530 833 557 q 776 485 803 503 q 710 460 749 468 q 626 447 672 451 q 698 371 674 419 q 722 264 722 322 q 706 174 722 222 q 651 83 689 125 q 553 14 614 42 q 403 -14 492 -14 q 278 5 340 -14 q 167 61 217 24 q 86 156 117 99 q 56 292 56 214 q 72 386 56 344 q 114 460 88 428 q 176 515 140 492 q 251 553 211 538 q 169 611 199 572 q 139 708 139 650 q 156 785 139 750 q 206 847 174 821 q 285 888 239 874 q 389 903 332 903 q 475 892 431 903 q 556 860 519 882 q 615 803 592 838 q 639 722 639 769 q 615 663 639 688 q 556 639 590 639 q 497 663 521 639 q 472 722 472 688 q 490 774 472 751 q 535 803 507 796 q 480 836 511 825 q 417 847 449 847 q 355 839 385 847 q 302 814 325 831 q 265 771 279 797 q 250 708 250 744 q 265 653 250 676 q 302 615 279 631 q 355 591 325 599 q 417 583 385 583 l 431 583 l 431 528 q 347 513 389 528 q 271 469 304 497 q 216 399 238 440 q 194 306 194 357 q 212 210 194 253 q 260 135 229 167 q 335 87 292 104 q 431 69 378 69 q 532 88 488 69 q 606 137 576 107 q 651 204 636 167 q 667 278 667 242 q 655 342 667 314 q 624 390 643 371 q 579 420 604 410 q 528 431 554 431 q 481 422 501 431 q 447 401 461 414 q 424 374 432 389 q 417 347 417 360 q 428 317 417 329 q 458 306 440 306 q 488 317 476 306 q 500 347 500 329 l 542 292 q 522 242 542 263 q 472 222 501 222 q 403 255 432 222 q 375 333 375 288 l 375 338 q 408 429 376 399 q 485 473 439 460 q 585 490 531 486 q 685 500 639 493 q 761 524 731 507 q 792 583 792 542 q 780 613 792 601 q 750 625 768 625 z "},"§":{"ha":611,"x_min":56,"x_max":556,"o":"m 556 403 q 534 322 556 350 q 489 279 513 293 q 517 231 507 258 q 528 167 528 203 q 469 35 528 83 q 306 -14 410 -14 q 224 -1 264 -14 q 152 35 183 11 q 102 92 121 58 q 83 167 83 125 q 108 226 83 201 q 167 250 132 250 q 226 226 201 250 q 250 167 250 201 q 232 115 250 138 q 186 86 214 93 q 238 53 208 64 q 292 42 267 42 q 381 71 344 42 q 417 153 417 100 q 390 224 417 197 q 323 267 363 250 q 236 299 283 285 q 149 335 189 313 q 83 392 110 357 q 56 486 56 426 q 77 567 56 539 q 122 610 99 596 q 94 658 104 631 q 83 722 83 686 q 142 854 83 806 q 306 903 201 903 q 387 890 347 903 q 458 854 426 878 q 508 797 489 831 q 528 722 528 764 q 503 663 528 688 q 444 639 479 639 q 385 663 410 639 q 361 722 361 688 q 379 774 361 751 q 425 803 397 796 q 374 836 403 825 q 319 847 344 847 q 231 818 267 847 q 194 736 194 789 q 222 665 194 690 q 288 622 249 639 q 375 590 328 604 q 462 554 422 576 q 528 497 501 532 q 556 403 556 461 m 139 514 q 154 460 139 482 q 194 422 169 438 q 252 394 219 406 q 319 371 285 382 q 388 347 354 360 q 450 314 422 333 q 466 338 460 324 q 472 375 472 353 q 457 429 472 407 q 417 467 442 451 q 359 495 392 483 q 292 518 326 507 q 223 542 257 529 q 161 575 189 556 q 145 551 151 565 q 139 514 139 536 z "},"¡":{"ha":278,"x_min":56,"x_max":222,"o":"m 139 500 q 80 524 104 500 q 56 583 56 549 q 80 642 56 618 q 139 667 104 667 q 198 642 174 667 q 222 583 222 618 q 198 524 222 549 q 139 500 174 500 m 167 444 q 194 182 182 303 q 205 78 200 131 q 214 -19 210 26 q 220 -99 218 -64 q 222 -153 222 -135 q 198 -212 222 -187 q 139 -236 174 -236 q 80 -212 104 -236 q 56 -153 56 -187 q 58 -99 56 -135 q 64 -19 60 -64 q 73 78 68 26 q 83 182 78 131 q 111 444 96 303 l 167 444 z "},"¿":{"ha":528,"x_min":56,"x_max":472,"o":"m 333 500 q 274 524 299 500 q 250 583 250 549 q 274 642 250 618 q 333 667 299 667 q 392 642 368 667 q 417 583 417 618 q 392 524 417 549 q 333 500 368 500 m 389 28 q 448 3 424 28 q 472 -56 472 -21 q 456 -131 472 -97 q 412 -187 439 -164 q 349 -224 385 -211 q 278 -236 314 -236 q 115 -179 174 -236 q 56 -28 56 -122 q 74 59 56 21 q 121 131 93 97 q 181 198 149 165 q 240 267 213 231 q 287 346 268 303 q 306 444 306 389 l 361 444 q 347 322 361 375 q 310 228 332 269 q 264 153 289 186 q 217 87 239 119 q 181 20 196 54 q 167 -56 167 -14 q 201 -149 167 -118 q 278 -181 236 -181 q 334 -170 308 -181 q 376 -137 360 -160 q 326 -110 346 -133 q 306 -56 306 -87 q 330 3 306 -21 q 389 28 354 28 z "},"†":{"ha":556,"x_min":56,"x_max":500,"o":"m 444 667 q 484 651 468 667 q 500 611 500 635 q 484 572 500 588 q 444 556 468 556 q 376 566 410 556 q 306 581 342 576 q 311 544 307 558 q 321 519 315 529 q 333 500 326 508 q 315 132 324 293 q 307 -3 311 63 q 298 -122 303 -69 q 288 -205 293 -174 q 278 -236 283 -236 q 267 -205 272 -236 q 257 -122 263 -174 q 247 -3 251 -69 q 239 132 243 63 q 222 500 229 293 q 235 519 229 508 q 250 581 246 540 q 180 566 214 576 q 111 556 146 556 q 72 572 88 556 q 56 611 56 588 q 72 651 56 635 q 111 667 88 667 q 180 656 146 667 q 249 642 214 646 q 233 747 244 690 q 222 847 222 803 q 238 887 222 871 q 278 903 254 903 q 317 887 301 903 q 333 847 333 871 q 322 747 333 803 q 307 642 311 690 q 376 656 342 646 q 444 667 410 667 z "},"@":{"ha":1125,"x_min":28,"x_max":1097,"o":"m 597 -181 q 753 -157 686 -181 q 867 -104 821 -133 q 958 -28 921 -71 l 1000 -69 q 892 -153 953 -117 q 765 -210 839 -185 q 597 -236 692 -236 q 376 -191 479 -236 q 195 -69 272 -146 q 73 112 118 8 q 28 333 28 215 q 73 555 28 451 q 195 735 118 658 q 376 858 272 813 q 597 903 479 903 q 804 864 711 903 q 962 760 897 825 q 1062 610 1026 696 q 1097 431 1097 524 q 1069 258 1097 332 q 997 137 1040 185 q 898 65 953 89 q 792 42 843 42 q 656 117 686 42 q 592 63 631 85 q 500 42 554 42 q 428 55 464 42 q 366 94 393 68 q 322 158 339 119 q 306 250 306 197 q 330 390 306 322 q 394 510 354 458 q 488 594 435 563 q 597 625 540 625 q 666 614 639 625 q 708 590 693 603 q 736 556 726 575 l 750 611 l 861 611 l 764 222 q 756 156 753 181 q 770 118 760 131 q 794 101 781 106 q 819 97 808 97 q 878 114 840 97 q 951 170 915 131 q 1015 273 988 210 q 1042 431 1042 336 q 1011 583 1042 508 q 924 717 981 658 q 784 811 867 775 q 597 847 701 847 q 397 807 490 847 q 234 697 304 767 q 124 533 164 626 q 83 333 83 439 q 124 133 83 226 q 234 -30 164 40 q 397 -140 304 -100 q 597 -181 490 -181 m 514 97 q 563 109 540 97 q 604 139 586 121 q 635 179 622 157 q 653 222 647 201 l 722 500 q 707 535 718 519 q 681 558 697 547 q 639 569 665 569 q 545 539 586 569 q 476 462 504 508 q 432 358 447 415 q 417 250 417 301 q 444 132 417 167 q 514 97 472 97 z "},"©":{"ha":1194,"x_min":28,"x_max":1167,"o":"m 875 667 l 875 444 l 847 444 q 765 576 819 526 q 639 625 710 625 q 538 603 582 625 q 463 542 493 581 q 418 449 433 503 q 403 333 403 396 q 418 217 403 271 q 463 125 433 164 q 538 64 493 86 q 639 42 582 42 q 758 79 701 42 q 847 181 815 117 l 875 181 q 765 35 839 85 q 597 -14 690 -14 q 475 5 535 -14 q 368 65 415 24 q 292 173 321 107 q 264 333 264 239 q 292 492 264 426 q 368 600 321 558 q 475 661 415 642 q 597 681 535 681 q 771 626 696 681 q 797 618 783 618 q 821 624 810 618 q 840 640 832 629 q 847 667 847 651 l 875 667 m 597 903 q 819 858 715 903 q 999 735 922 813 q 1122 555 1076 658 q 1167 333 1167 451 q 1122 112 1167 215 q 999 -69 1076 8 q 819 -191 922 -146 q 597 -236 715 -236 q 376 -191 479 -236 q 195 -69 272 -146 q 73 112 118 8 q 28 333 28 215 q 73 555 28 451 q 195 735 118 658 q 376 858 272 813 q 597 903 479 903 m 597 -181 q 797 -140 703 -181 q 960 -30 890 -100 q 1071 133 1031 40 q 1111 333 1111 226 q 1071 533 1111 439 q 960 697 1031 626 q 797 807 890 767 q 597 847 703 847 q 397 807 490 847 q 234 697 304 767 q 124 533 164 626 q 83 333 83 439 q 124 133 83 226 q 234 -30 164 40 q 397 -140 304 -100 q 597 -181 490 -181 z "},"®":{"ha":1194,"x_min":28,"x_max":1167,"o":"m 597 903 q 819 858 715 903 q 999 735 922 813 q 1122 555 1076 658 q 1167 333 1167 451 q 1122 112 1167 215 q 999 -69 1076 8 q 819 -191 922 -146 q 597 -236 715 -236 q 376 -191 479 -236 q 195 -69 272 -146 q 73 112 118 8 q 28 333 28 215 q 73 555 28 451 q 195 735 118 658 q 376 858 272 813 q 597 903 479 903 m 597 -181 q 797 -140 703 -181 q 960 -30 890 -100 q 1071 133 1031 40 q 1111 333 1111 226 q 1071 533 1111 439 q 960 697 1031 626 q 797 807 890 767 q 597 847 703 847 q 397 807 490 847 q 234 697 304 767 q 124 533 164 626 q 83 333 83 439 q 124 133 83 226 q 234 -30 164 40 q 397 -140 304 -100 q 597 -181 490 -181 m 826 76 q 865 40 842 53 q 917 28 889 28 l 917 0 l 744 0 l 597 224 q 576 222 586 222 q 556 222 567 222 l 472 222 l 472 111 q 497 52 472 76 q 556 28 521 28 l 556 0 l 278 0 l 278 28 q 337 52 313 28 q 361 111 361 76 l 361 556 q 337 615 361 590 q 278 639 313 639 l 278 667 l 556 667 q 806 608 724 667 q 889 444 889 549 q 847 317 889 369 q 718 242 804 265 l 826 76 m 556 278 q 650 294 613 278 q 710 335 688 310 q 741 389 732 360 q 750 444 750 418 q 741 500 750 471 q 710 554 732 529 q 650 595 688 579 q 556 611 613 611 l 472 611 l 472 278 l 556 278 z "},"™":{"ha":1083,"x_min":56,"x_max":1028,"o":"m 444 889 l 444 750 l 417 750 q 388 819 417 790 q 319 847 360 847 l 306 847 l 306 528 q 322 488 306 504 q 361 472 338 472 l 361 444 l 139 444 l 139 472 q 178 488 163 472 q 194 528 194 504 l 194 847 l 181 847 q 112 819 140 847 q 83 750 83 790 l 56 750 l 56 889 l 444 889 m 1028 861 q 988 845 1004 861 q 972 806 972 829 l 972 528 q 988 488 972 504 q 1028 472 1004 472 l 1028 444 l 806 444 l 806 472 q 845 488 829 472 q 861 528 861 504 l 861 731 l 754 444 l 694 444 l 583 740 l 583 528 q 599 488 583 504 q 639 472 615 472 l 639 444 l 472 444 l 472 472 q 512 488 496 472 q 528 528 528 504 l 528 806 q 512 845 528 829 q 472 861 496 861 l 472 889 l 646 889 l 754 603 l 861 889 l 1028 889 l 1028 861 z "},"ª":{"ha":556,"x_min":56,"x_max":500,"o":"m 458 514 q 485 521 471 514 q 500 528 492 524 l 500 472 q 472 451 488 460 q 441 437 458 443 q 403 431 424 431 q 352 449 371 431 q 333 500 333 468 q 288 465 313 481 q 240 441 267 451 q 181 431 213 431 q 87 460 118 431 q 56 542 56 489 q 67 594 56 571 q 99 634 79 617 q 143 665 118 651 q 194 689 168 679 q 333 722 256 713 l 333 750 q 315 825 333 803 q 264 847 296 847 q 213 828 232 847 q 194 778 194 810 q 178 738 194 754 q 139 722 163 722 q 99 738 115 722 q 83 778 83 754 q 96 821 83 799 q 132 861 108 843 q 189 891 156 879 q 264 903 222 903 q 327 897 294 903 q 385 872 360 890 q 428 820 411 853 q 444 736 444 788 l 444 556 q 446 524 444 535 q 458 514 447 514 m 333 667 q 250 647 286 661 q 192 614 218 636 q 167 556 167 592 q 184 512 167 524 q 222 500 201 500 q 263 508 243 500 q 299 528 283 517 q 333 556 317 540 l 333 667 z "},"º":{"ha":556,"x_min":56,"x_max":500,"o":"m 278 903 q 359 890 319 903 q 430 847 399 876 q 481 774 461 818 q 500 667 500 729 q 481 560 500 604 q 430 486 461 515 q 359 444 399 457 q 278 431 319 431 q 196 444 236 431 q 124 486 156 457 q 74 560 93 515 q 56 667 56 604 q 74 774 56 729 q 124 847 93 818 q 196 890 156 876 q 278 903 236 903 m 278 486 q 319 494 299 486 q 354 524 339 503 q 379 579 369 544 q 389 667 389 614 q 379 753 389 718 q 354 808 369 788 q 319 838 339 829 q 278 847 299 847 q 237 838 257 847 q 201 808 217 829 q 176 753 186 788 q 167 667 167 718 q 176 579 167 614 q 201 524 186 544 q 237 494 217 503 q 278 486 257 486 z "},"¹":{"ha":333,"x_min":56,"x_max":278,"o":"m 278 444 l 56 444 l 56 472 q 95 488 79 472 q 111 528 111 504 l 111 750 l 56 750 l 56 778 q 134 810 101 778 q 167 889 167 843 l 222 889 l 222 750 l 222 528 q 238 488 222 504 q 278 472 254 472 l 278 444 z "},"²":{"ha":472,"x_min":56,"x_max":417,"o":"m 417 583 l 417 444 l 56 444 q 74 535 56 500 q 121 595 93 571 q 181 635 149 619 q 240 669 213 651 q 287 708 268 686 q 306 764 306 729 q 287 822 306 796 q 236 847 268 847 q 185 822 204 847 q 167 764 167 796 q 151 724 167 740 q 111 708 135 708 q 72 724 88 708 q 56 764 56 740 q 68 815 56 790 q 104 860 81 840 q 161 891 128 879 q 236 903 194 903 q 305 890 272 903 q 363 857 338 878 q 402 808 388 836 q 417 750 417 781 q 388 653 417 689 q 322 594 360 618 q 244 550 283 569 q 183 500 204 531 l 306 500 q 365 524 340 500 q 389 583 389 549 l 417 583 z "},"³":{"ha":472,"x_min":56,"x_max":417,"o":"m 303 719 q 385 671 353 704 q 417 583 417 638 q 402 524 417 551 q 363 475 388 496 q 305 442 338 454 q 236 431 272 431 q 155 442 189 431 q 99 474 121 454 q 66 518 76 493 q 56 569 56 543 q 72 609 56 593 q 111 625 88 625 q 151 609 135 625 q 167 569 167 593 q 185 512 167 538 q 236 486 204 486 q 270 495 257 486 q 292 519 283 504 q 303 551 300 533 q 306 583 306 568 q 269 670 306 646 q 181 694 233 694 l 181 736 l 246 833 l 153 833 q 101 809 118 833 q 83 750 83 785 l 56 750 l 56 889 l 417 889 l 303 719 l 303 719 z "},"*":{"ha":515,"x_min":56,"x_max":463,"o":"m 431 632 q 458 583 458 615 q 451 556 458 569 q 403 528 435 528 q 375 535 389 528 q 360 547 369 539 q 338 565 350 554 q 315 588 326 575 q 292 611 303 600 q 299 578 296 596 q 306 546 303 561 q 310 518 308 531 q 313 500 313 506 q 297 460 313 476 q 257 444 281 444 q 217 460 233 444 q 201 500 201 476 q 203 518 201 506 q 208 546 206 531 q 215 578 211 561 q 222 611 218 596 q 199 588 211 600 q 175 565 186 575 q 154 547 164 554 q 139 535 144 539 q 111 528 125 528 q 63 556 79 528 q 56 583 56 569 q 83 632 56 615 q 101 639 89 635 q 129 648 114 643 q 162 658 144 653 q 194 667 179 663 q 162 676 179 671 q 129 685 144 681 q 101 694 114 690 q 83 701 89 699 q 56 750 56 718 q 63 778 56 764 q 111 806 79 806 q 139 799 125 806 q 175 768 150 792 q 222 722 200 744 q 208 788 215 754 q 201 833 201 821 q 217 873 201 857 q 257 889 233 889 q 297 873 281 889 q 313 833 313 857 q 306 788 313 821 q 292 722 299 754 q 339 768 314 744 q 375 799 364 792 q 417 803 394 810 q 451 778 440 797 q 456 735 463 758 q 431 701 450 713 q 385 685 419 694 q 318 667 350 675 q 385 649 350 658 q 431 632 419 639 z "},"(":{"ha":389,"x_min":56,"x_max":389,"o":"m 389 -222 q 222 -125 296 -199 q 160 -49 190 -94 q 108 58 131 -4 q 70 203 85 121 q 56 389 56 285 q 70 574 56 493 q 108 718 85 656 q 160 826 131 781 q 222 903 190 871 q 389 1000 296 976 l 389 944 q 278 854 326 921 q 237 784 257 825 q 201 687 217 743 q 176 556 186 631 q 167 389 167 482 q 176 221 167 294 q 201 91 186 147 q 237 -6 217 35 q 278 -76 257 -47 q 389 -167 326 -143 l 389 -222 z "},")":{"ha":389,"x_min":0,"x_max":333,"o":"m 0 1000 q 167 903 93 976 q 228 826 197 871 q 281 718 258 781 q 319 574 304 656 q 333 389 333 493 q 319 203 333 285 q 281 58 304 121 q 228 -49 258 -4 q 167 -125 197 -94 q 0 -222 93 -199 l 0 -167 q 111 -76 63 -143 q 152 -6 132 -47 q 188 91 172 35 q 213 221 203 147 q 222 389 222 294 q 213 556 222 482 q 188 687 203 631 q 152 784 172 743 q 111 854 132 825 q 0 944 63 921 l 0 1000 z "},"[":{"ha":333,"x_min":56,"x_max":333,"o":"m 333 944 l 167 944 l 167 -167 l 333 -167 l 333 -222 l 56 -222 l 56 1000 l 333 1000 l 333 944 l 333 944 z "},"]":{"ha":333,"x_min":0,"x_max":278,"o":"m 0 -167 l 167 -167 l 167 944 l 0 944 l 0 1000 l 278 1000 l 278 -222 l 0 -222 l 0 -167 l 0 -167 z "},"{":{"ha":389,"x_min":56,"x_max":389,"o":"m 222 611 q 205 494 222 538 q 167 426 188 450 q 111 389 142 399 q 167 350 142 376 q 205 283 188 326 q 222 167 222 240 l 222 56 q 233 -26 222 14 q 264 -98 243 -67 q 316 -148 285 -129 q 389 -167 347 -167 l 389 -222 q 275 -202 326 -222 q 188 -146 224 -182 q 131 -58 151 -110 q 111 56 111 -7 l 111 167 q 103 278 111 240 q 83 336 94 317 q 56 361 71 357 l 56 417 q 83 440 71 418 q 103 498 94 458 q 111 611 111 538 l 111 722 q 131 836 111 785 q 188 924 151 888 q 275 980 224 960 q 389 1000 326 1000 l 389 944 q 316 925 347 944 q 264 874 285 906 q 233 803 243 843 q 222 722 222 764 l 222 611 l 222 611 z "},"}":{"ha":389,"x_min":0,"x_max":333,"o":"m 167 167 q 184 283 167 240 q 222 350 201 326 q 278 389 247 376 q 222 426 247 399 q 184 494 201 450 q 167 611 167 538 l 167 722 q 156 803 167 764 q 125 874 146 843 q 73 925 104 906 q 0 944 42 944 l 0 1000 q 114 980 63 1000 q 201 924 165 960 q 258 836 238 888 q 278 722 278 785 l 278 611 q 286 498 278 538 q 306 440 294 458 q 333 417 318 418 l 333 361 q 306 336 318 357 q 286 278 294 317 q 278 167 278 240 l 278 56 q 258 -58 278 -7 q 201 -146 238 -110 q 114 -202 165 -182 q 0 -222 63 -222 l 0 -167 q 73 -148 42 -167 q 125 -98 104 -129 q 156 -26 146 -67 q 167 56 167 14 l 167 167 l 167 167 z "},"!":{"ha":278,"x_min":56,"x_max":222,"o":"m 139 167 q 198 142 174 167 q 222 83 222 118 q 198 24 222 49 q 139 0 174 0 q 80 24 104 0 q 56 83 56 49 q 80 142 56 118 q 139 167 104 167 m 111 222 q 83 485 96 364 q 73 588 78 536 q 64 685 68 640 q 58 766 60 731 q 56 819 56 801 q 80 878 56 854 q 139 903 104 903 q 198 878 174 903 q 222 819 222 854 q 220 766 222 801 q 214 685 218 731 q 205 588 210 640 q 194 485 200 536 q 167 222 182 364 l 111 222 z "},"?":{"ha":528,"x_min":56,"x_max":472,"o":"m 194 167 q 253 142 229 167 q 278 83 278 118 q 253 24 278 49 q 194 0 229 0 q 135 24 160 0 q 111 83 111 49 q 135 142 111 118 q 194 167 160 167 m 222 722 q 198 663 222 688 q 139 639 174 639 q 80 663 104 639 q 56 722 56 688 q 72 797 56 764 q 116 854 89 831 q 178 890 143 878 q 250 903 214 903 q 413 846 354 903 q 472 694 472 789 q 453 608 472 646 q 407 535 435 569 q 347 469 379 501 q 288 400 315 436 q 241 321 260 364 q 222 222 222 278 l 167 222 q 181 344 167 292 q 217 439 196 397 q 264 514 239 481 q 310 580 289 547 q 347 647 332 613 q 361 722 361 681 q 326 816 361 785 q 250 847 292 847 q 194 837 219 847 q 151 804 168 826 q 202 777 182 800 q 222 722 222 754 z "},"-":{"ha":333,"x_min":56,"x_max":278,"o":"m 278 306 l 56 306 l 56 361 l 278 361 l 278 306 l 278 306 z "},"−":{"ha":556,"x_min":56,"x_max":500,"o":"m 500 306 l 56 306 l 56 361 l 500 361 l 500 306 l 500 306 z "},"–":{"ha":556,"x_min":56,"x_max":500,"o":"m 500 306 l 56 306 l 56 361 l 500 361 l 500 306 l 500 306 z "},"—":{"ha":778,"x_min":56,"x_max":722,"o":"m 722 306 l 56 306 l 56 361 l 722 361 l 722 306 l 722 306 z "},"+":{"ha":556,"x_min":56,"x_max":500,"o":"m 500 361 l 500 306 l 306 306 l 306 111 l 250 111 l 250 306 l 56 306 l 56 361 l 250 361 l 250 556 l 306 556 l 306 361 l 500 361 l 500 361 z "},"=":{"ha":556,"x_min":56,"x_max":500,"o":"m 56 444 l 500 444 l 500 389 l 56 389 l 56 444 m 56 222 l 56 278 l 500 278 l 500 222 l 56 222 z "},"<":{"ha":500,"x_min":56,"x_max":444,"o":"m 444 556 l 444 500 l 111 333 l 444 167 l 444 111 l 56 306 l 56 361 l 444 556 l 444 556 z "},">":{"ha":500,"x_min":56,"x_max":444,"o":"m 56 111 l 56 167 l 389 333 l 56 500 l 56 556 l 444 361 l 444 306 l 56 111 l 56 111 z "},"×":{"ha":500,"x_min":28,"x_max":472,"o":"m 472 514 l 292 333 l 472 153 l 431 111 l 250 292 l 69 111 l 28 153 l 208 333 l 28 514 l 69 556 l 250 375 l 431 556 l 472 514 l 472 514 z "},"^":{"ha":500,"x_min":56,"x_max":444,"o":"m 389 556 l 250 833 l 111 556 l 56 556 l 222 889 l 278 889 l 444 556 l 389 556 z "},"·":{"ha":278,"x_min":56,"x_max":222,"o":"m 222 333 q 198 274 222 299 q 139 250 174 250 q 80 274 104 250 q 56 333 56 299 q 80 392 56 368 q 139 417 104 417 q 198 392 174 417 q 222 333 222 368 z "},"•":{"ha":389,"x_min":56,"x_max":333,"o":"m 333 333 q 293 235 333 275 q 194 194 253 194 q 96 235 136 194 q 56 333 56 275 q 96 432 56 392 q 194 472 136 472 q 293 432 253 472 q 333 333 333 392 z "},"÷":{"ha":500,"x_min":28,"x_max":472,"o":"m 472 361 l 472 306 l 28 306 l 28 361 l 472 361 m 250 417 q 191 441 215 417 q 167 500 167 465 q 191 559 167 535 q 250 583 215 583 q 309 559 285 583 q 333 500 333 535 q 309 441 333 465 q 250 417 285 417 m 250 250 q 309 226 285 250 q 333 167 333 201 q 309 108 333 132 q 250 83 285 83 q 191 108 215 83 q 167 167 167 132 q 191 226 167 201 q 250 250 215 250 z "},"~":{"ha":778,"x_min":56,"x_max":722,"o":"m 583 333 q 635 344 615 333 q 669 368 656 354 q 694 403 685 383 l 722 389 q 676 319 703 350 q 617 272 653 293 q 528 250 581 250 q 436 263 475 250 q 361 292 397 276 q 285 320 325 307 q 194 333 246 333 q 141 325 163 333 q 107 306 119 317 q 83 278 92 293 l 56 292 q 100 354 72 326 q 160 397 124 378 q 250 417 197 417 q 341 403 301 417 q 417 375 381 390 q 492 347 453 360 q 583 333 531 333 z "},"“":{"ha":472,"x_min":56,"x_max":417,"o":"m 139 778 q 198 753 174 778 q 222 694 222 729 q 198 635 222 660 q 139 611 174 611 q 80 635 104 611 q 56 694 56 660 q 77 790 56 753 q 125 849 99 826 q 194 889 156 874 l 194 861 q 167 844 181 856 q 144 818 156 835 q 124 776 132 801 q 139 778 128 778 m 333 778 q 392 753 368 778 q 417 694 417 729 q 392 635 417 660 q 333 611 368 611 q 274 635 299 611 q 250 694 250 660 q 272 790 250 753 q 319 849 293 826 q 389 889 350 874 l 389 861 q 361 844 375 856 q 338 818 350 835 q 318 776 326 801 q 333 778 322 778 z "},"”":{"ha":472,"x_min":56,"x_max":417,"o":"m 139 889 q 198 865 174 889 q 222 806 222 840 q 201 710 222 747 q 153 651 179 674 q 83 611 122 626 l 83 639 q 110 656 96 644 q 133 681 121 665 q 154 724 146 697 q 139 722 150 722 q 80 747 104 722 q 56 806 56 771 q 80 865 56 840 q 139 889 104 889 m 333 889 q 392 865 368 889 q 417 806 417 840 q 395 710 417 747 q 347 651 374 674 q 278 611 317 626 l 278 639 q 304 656 290 644 q 328 681 315 665 q 349 724 340 697 q 333 722 344 722 q 274 747 299 722 q 250 806 250 771 q 274 865 250 840 q 333 889 299 889 z "},"‘":{"ha":278,"x_min":56,"x_max":222,"o":"m 139 778 q 198 753 174 778 q 222 694 222 729 q 198 635 222 660 q 139 611 174 611 q 80 635 104 611 q 56 694 56 660 q 77 790 56 753 q 125 849 99 826 q 194 889 156 874 l 194 861 q 167 844 181 856 q 144 818 156 835 q 124 776 132 801 q 139 778 128 778 z "},"’":{"ha":278,"x_min":56,"x_max":222,"o":"m 139 889 q 198 865 174 889 q 222 806 222 840 q 201 710 222 747 q 153 651 179 674 q 83 611 122 626 l 83 639 q 110 656 96 644 q 133 681 121 665 q 154 724 146 697 q 139 722 150 722 q 80 747 104 722 q 56 806 56 771 q 80 865 56 840 q 139 889 104 889 z "},"„":{"ha":472,"x_min":56,"x_max":417,"o":"m 139 167 q 198 142 174 167 q 222 83 222 118 q 201 -12 222 25 q 153 -71 179 -49 q 83 -111 122 -96 l 83 -83 q 110 -67 96 -78 q 133 -41 121 -57 q 154 1 146 -25 q 139 0 150 0 q 80 24 104 0 q 56 83 56 49 q 80 142 56 118 q 139 167 104 167 m 333 167 q 392 142 368 167 q 417 83 417 118 q 395 -12 417 25 q 347 -71 374 -49 q 278 -111 317 -96 l 278 -83 q 304 -67 290 -78 q 328 -41 315 -57 q 349 1 340 -25 q 333 0 344 0 q 274 24 299 0 q 250 83 250 49 q 274 142 250 118 q 333 167 299 167 z "},",":{"ha":278,"x_min":56,"x_max":222,"o":"m 139 167 q 198 142 174 167 q 222 83 222 118 q 201 -12 222 25 q 153 -71 179 -49 q 83 -111 122 -96 l 83 -83 q 110 -67 96 -78 q 133 -41 121 -57 q 154 1 146 -25 q 139 0 150 0 q 80 24 104 0 q 56 83 56 49 q 80 142 56 118 q 139 167 104 167 z "},"‚":{"ha":278,"x_min":56,"x_max":222,"o":"m 139 167 q 198 142 174 167 q 222 83 222 118 q 201 -12 222 25 q 153 -71 179 -49 q 83 -111 122 -96 l 83 -83 q 110 -67 96 -78 q 133 -41 121 -57 q 154 1 146 -25 q 139 0 150 0 q 80 24 104 0 q 56 83 56 49 q 80 142 56 118 q 139 167 104 167 z "},".":{"ha":278,"x_min":56,"x_max":222,"o":"m 222 83 q 198 24 222 49 q 139 0 174 0 q 80 24 104 0 q 56 83 56 49 q 80 142 56 118 q 139 167 104 167 q 198 142 174 167 q 222 83 222 118 z "},"…":{"ha":722,"x_min":56,"x_max":667,"o":"m 222 83 q 198 24 222 49 q 139 0 174 0 q 80 24 104 0 q 56 83 56 49 q 80 142 56 118 q 139 167 104 167 q 198 142 174 167 q 222 83 222 118 m 444 83 q 420 24 444 49 q 361 0 396 0 q 302 24 326 0 q 278 83 278 49 q 302 142 278 118 q 361 167 326 167 q 420 142 396 167 q 444 83 444 118 m 667 83 q 642 24 667 49 q 583 0 618 0 q 524 24 549 0 q 500 83 500 49 q 524 142 500 118 q 583 167 549 167 q 642 142 618 167 q 667 83 667 118 z "},":":{"ha":278,"x_min":56,"x_max":222,"o":"m 222 361 q 198 302 222 326 q 139 278 174 278 q 80 302 104 278 q 56 361 56 326 q 80 420 56 396 q 139 444 104 444 q 198 420 174 444 q 222 361 222 396 m 222 83 q 198 24 222 49 q 139 0 174 0 q 80 24 104 0 q 56 83 56 49 q 80 142 56 118 q 139 167 104 167 q 198 142 174 167 q 222 83 222 118 z "},";":{"ha":222,"x_min":28,"x_max":194,"o":"m 111 278 q 52 302 76 278 q 28 361 28 326 q 52 420 28 396 q 111 444 76 444 q 170 420 146 444 q 194 361 194 396 q 170 302 194 326 q 111 278 146 278 m 111 167 q 170 142 146 167 q 194 83 194 118 q 173 -12 194 25 q 125 -71 151 -49 q 56 -111 94 -96 l 56 -83 q 82 -67 68 -78 q 106 -41 93 -57 q 126 1 118 -25 q 111 0 122 0 q 52 24 76 0 q 28 83 28 49 q 52 142 28 118 q 111 167 76 167 z "},"«":{"ha":556,"x_min":56,"x_max":500,"o":"m 278 444 l 333 444 l 167 222 l 333 0 l 278 0 l 56 222 l 278 444 m 444 444 l 500 444 l 333 222 l 500 0 l 444 0 l 222 222 l 444 444 z "},"»":{"ha":556,"x_min":56,"x_max":500,"o":"m 278 0 l 222 0 l 389 222 l 222 444 l 278 444 l 500 222 l 278 0 m 111 0 l 56 0 l 222 222 l 56 444 l 111 444 l 333 222 l 111 0 z "},"‹":{"ha":389,"x_min":56,"x_max":333,"o":"m 278 444 l 333 444 l 167 222 l 333 0 l 278 0 l 56 222 l 278 444 l 278 444 z "},"›":{"ha":389,"x_min":56,"x_max":333,"o":"m 111 0 l 56 0 l 222 222 l 56 444 l 111 444 l 333 222 l 111 0 l 111 0 z "},"\"":{"ha":389,"x_min":28,"x_max":361,"o":"m 97 889 q 147 869 126 889 q 167 819 167 849 q 158 770 167 804 q 139 700 150 736 q 111 611 126 658 l 83 611 q 56 700 68 658 q 36 770 44 736 q 28 819 28 804 q 48 869 28 849 q 97 889 68 889 m 292 889 q 341 869 321 889 q 361 819 361 849 q 353 770 361 804 q 333 700 344 736 q 306 611 321 658 l 278 611 q 250 700 263 658 q 231 770 239 736 q 222 819 222 804 q 242 869 222 849 q 292 889 263 889 z "},"'":{"ha":194,"x_min":28,"x_max":167,"o":"m 83 611 q 56 700 68 658 q 36 770 44 736 q 28 819 28 804 q 48 869 28 849 q 97 889 68 889 q 147 869 126 889 q 167 819 167 849 q 158 770 167 804 q 139 700 150 736 q 111 611 126 658 l 83 611 z "},"°":{"ha":389,"x_min":56,"x_max":333,"o":"m 194 889 q 293 849 253 889 q 333 750 333 808 q 293 651 333 692 q 194 611 253 611 q 96 651 136 611 q 56 750 56 692 q 96 849 56 808 q 194 889 136 889 m 194 667 q 253 691 229 667 q 278 750 278 715 q 253 809 278 785 q 194 833 229 833 q 135 809 160 833 q 111 750 111 785 q 135 691 111 715 q 194 667 160 667 z "},"/":{"ha":556,"x_min":28,"x_max":528,"o":"m 90 0 l 28 0 l 465 889 l 528 889 l 90 0 l 90 0 z "},"|":{"ha":222,"x_min":83,"x_max":139,"o":"m 139 -222 l 83 -222 l 83 1000 l 139 1000 l 139 -222 l 139 -222 z "},"\\":{"ha":556,"x_min":28,"x_max":528,"o":"m 465 0 l 28 889 l 90 889 l 528 0 l 465 0 l 465 0 z "},"#":{"ha":611,"x_min":28,"x_max":583,"o":"m 583 417 l 465 417 l 424 250 l 583 250 l 583 194 l 410 194 l 361 0 l 306 0 l 354 194 l 188 194 l 139 0 l 83 0 l 132 194 l 28 194 l 28 250 l 146 250 l 188 417 l 28 417 l 28 472 l 201 472 l 250 667 l 306 667 l 257 472 l 424 472 l 472 667 l 528 667 l 479 472 l 583 472 l 583 417 m 368 250 l 410 417 l 243 417 l 201 250 l 368 250 z "},"_":{"ha":722,"x_min":28,"x_max":694,"o":"m 694 -111 l 28 -111 l 28 -56 l 694 -56 l 694 -111 l 694 -111 z "},"Á":{"ha":847,"x_min":0,"x_max":847,"o":"m 403 944 l 458 1111 l 597 1111 l 458 944 l 403 944 m 847 28 q 793 44 817 28 q 758 89 769 61 l 458 889 l 399 889 l 103 99 q 63 47 90 67 q 0 28 35 28 l 0 0 l 222 0 l 222 28 q 194 35 207 28 q 173 53 181 42 q 163 80 165 65 q 165 110 160 94 l 208 222 l 590 222 l 631 115 q 622 56 642 83 q 569 28 603 28 l 569 0 l 847 0 l 847 28 m 229 278 l 399 731 l 569 278 l 229 278 z "},"À":{"ha":847,"x_min":0,"x_max":847,"o":"m 847 0 l 569 0 l 569 28 q 622 56 603 28 q 631 115 642 83 l 590 222 l 208 222 l 165 110 q 163 80 160 94 q 173 53 165 65 q 194 35 181 42 q 222 28 207 28 l 222 0 l 0 0 l 0 28 q 63 47 35 28 q 103 99 90 67 l 399 889 l 458 889 l 758 89 q 793 44 769 61 q 847 28 817 28 l 847 0 m 569 278 l 399 731 l 229 278 l 569 278 m 403 944 l 264 1111 l 403 1111 l 458 944 l 403 944 z "},"Â":{"ha":847,"x_min":0,"x_max":847,"o":"m 847 0 l 569 0 l 569 28 q 622 56 603 28 q 631 115 642 83 l 590 222 l 208 222 l 165 110 q 163 80 160 94 q 173 53 165 65 q 194 35 181 42 q 222 28 207 28 l 222 0 l 0 0 l 0 28 q 63 47 35 28 q 103 99 90 67 l 399 889 l 458 889 l 758 89 q 793 44 769 61 q 847 28 817 28 l 847 0 m 569 278 l 399 731 l 229 278 l 569 278 m 528 944 l 431 1014 l 333 944 l 278 944 l 403 1111 l 458 1111 l 583 944 l 528 944 z "},"Ä":{"ha":847,"x_min":0,"x_max":847,"o":"m 847 28 q 793 44 817 28 q 758 89 769 61 l 458 889 l 399 889 l 103 99 q 63 47 90 67 q 0 28 35 28 l 0 0 l 222 0 l 222 28 q 194 35 207 28 q 173 53 181 42 q 163 80 165 65 q 165 110 160 94 l 208 222 l 590 222 l 631 115 q 622 56 642 83 q 569 28 603 28 l 569 0 l 847 0 l 847 28 m 229 278 l 399 731 l 569 278 l 229 278 m 403 1028 q 383 978 403 999 q 333 958 363 958 q 284 978 304 958 q 264 1028 264 999 q 284 1077 264 1057 q 333 1097 304 1097 q 383 1077 363 1097 q 403 1028 403 1057 m 597 1028 q 577 978 597 999 q 528 958 557 958 q 478 978 499 958 q 458 1028 458 999 q 478 1077 458 1057 q 528 1097 499 1097 q 577 1077 557 1097 q 597 1028 597 1057 z "},"Å":{"ha":847,"x_min":0,"x_max":847,"o":"m 847 0 l 569 0 l 569 28 q 622 56 603 28 q 631 115 642 83 l 590 222 l 208 222 l 165 110 q 163 80 160 94 q 173 53 165 65 q 194 35 181 42 q 222 28 207 28 l 222 0 l 0 0 l 0 28 q 63 47 35 28 q 103 99 90 67 l 399 889 l 458 889 l 758 89 q 793 44 769 61 q 847 28 817 28 l 847 0 m 569 278 l 399 731 l 229 278 l 569 278 m 431 1139 q 509 1106 476 1139 q 542 1028 542 1074 q 509 949 542 982 q 431 917 476 917 q 352 949 385 917 q 319 1028 319 982 q 352 1106 319 1074 q 431 1139 385 1139 m 431 972 q 470 988 454 972 q 486 1028 486 1004 q 470 1067 486 1051 q 431 1083 454 1083 q 391 1067 407 1083 q 375 1028 375 1051 q 391 988 375 1004 q 431 972 407 972 z "},"Ã":{"ha":847,"x_min":0,"x_max":847,"o":"m 847 0 l 569 0 l 569 28 q 622 56 603 28 q 631 115 642 83 l 590 222 l 208 222 l 165 110 q 163 80 160 94 q 173 53 165 65 q 194 35 181 42 q 222 28 207 28 l 222 0 l 0 0 l 0 28 q 63 47 35 28 q 103 99 90 67 l 399 889 l 458 889 l 758 89 q 793 44 769 61 q 847 28 817 28 l 847 0 m 569 278 l 399 731 l 229 278 l 569 278 m 528 1042 q 564 1046 549 1042 q 590 1056 579 1050 q 611 1069 603 1061 l 625 1056 q 593 1007 611 1028 q 555 973 578 988 q 500 958 532 958 q 450 967 468 958 q 417 985 432 975 q 383 1005 401 996 q 333 1014 364 1014 q 297 1010 313 1014 q 271 1000 282 1006 q 250 986 258 994 l 236 1000 q 267 1049 249 1026 q 306 1082 282 1067 q 361 1097 329 1097 q 410 1088 392 1097 q 444 1069 429 1079 q 478 1050 460 1058 q 528 1042 496 1042 z "},"Ă":{"ha":847,"x_min":0,"x_max":847,"o":"m 847 0 l 569 0 l 569 28 q 622 56 603 28 q 631 115 642 83 l 590 222 l 208 222 l 165 110 q 163 80 160 94 q 173 53 165 65 q 194 35 181 42 q 222 28 207 28 l 222 0 l 0 0 l 0 28 q 63 47 35 28 q 103 99 90 67 l 399 889 l 458 889 l 758 89 q 793 44 769 61 q 847 28 817 28 l 847 0 m 569 278 l 399 731 l 229 278 l 569 278 m 431 1042 q 517 1050 483 1042 q 572 1069 551 1058 q 611 1097 597 1082 l 625 1083 q 579 1021 606 1047 q 519 978 556 997 q 431 958 483 958 q 341 978 378 958 q 281 1021 304 997 q 236 1083 253 1047 l 250 1097 q 288 1069 263 1082 q 343 1050 308 1058 q 431 1042 378 1042 z "},"Æ":{"ha":1361,"x_min":0,"x_max":1306,"o":"m 1278 639 q 1263 715 1278 679 q 1221 776 1247 750 q 1159 818 1194 803 q 1083 833 1124 833 l 778 833 l 778 472 l 944 472 q 1043 513 1003 472 q 1083 611 1083 553 l 1111 611 l 1111 278 l 1083 278 q 1043 376 1083 336 q 944 417 1003 417 l 778 417 l 778 56 l 1083 56 q 1159 71 1124 56 q 1221 113 1194 86 q 1263 174 1247 139 q 1278 250 1278 210 l 1306 250 l 1306 0 l 583 0 l 583 28 q 642 52 618 28 q 667 111 667 76 l 667 222 l 301 222 l 196 79 q 194 46 185 64 q 222 28 203 28 l 222 0 l 0 0 l 0 28 q 81 47 43 28 q 143 100 118 65 l 661 807 q 632 846 653 831 q 583 861 611 861 l 583 889 l 1306 889 l 1306 639 l 1278 639 m 667 278 l 667 719 l 342 278 l 667 278 z "},"Ç":{"ha":889,"x_min":56,"x_max":833,"o":"m 528 847 q 370 815 433 847 q 267 729 307 783 q 211 601 228 675 q 194 444 194 528 q 217 288 194 361 q 285 160 240 214 q 394 74 329 106 q 542 42 458 42 q 665 69 615 42 q 746 132 714 97 q 806 222 782 171 l 833 222 q 768 107 811 158 q 726 64 750 85 q 670 26 701 43 q 600 -1 639 10 q 514 -14 561 -12 l 499 -44 q 559 -78 535 -51 q 583 -139 583 -104 q 551 -208 583 -179 q 472 -236 518 -236 q 429 -229 443 -236 q 417 -222 422 -226 l 417 -194 q 426 -201 421 -199 q 458 -208 438 -208 q 498 -192 482 -208 q 514 -153 514 -176 q 498 -113 514 -129 q 458 -97 482 -97 l 444 -97 l 486 -14 q 327 14 404 -12 q 190 95 250 40 q 92 236 129 150 q 56 444 56 322 q 94 657 56 569 q 194 799 132 744 q 337 878 257 853 q 500 903 417 903 q 622 884 571 903 q 710 839 674 865 q 742 828 725 828 q 773 835 758 828 q 797 857 788 843 q 806 889 806 871 l 833 889 l 833 639 l 806 639 q 750 743 786 697 q 665 815 718 782 q 528 847 611 847 z "},"È":{"ha":806,"x_min":28,"x_max":750,"o":"m 389 944 l 250 1111 l 389 1111 l 444 944 l 389 944 m 222 833 l 222 472 l 389 472 q 488 513 447 472 q 528 611 528 553 l 556 611 l 556 278 l 528 278 q 488 376 528 336 q 389 417 447 417 l 222 417 l 222 56 l 528 56 q 603 71 568 56 q 665 113 639 86 q 707 174 692 139 q 722 250 722 210 l 750 250 l 750 0 l 28 0 l 28 28 q 87 52 63 28 q 111 111 111 76 l 111 778 q 87 837 111 813 q 28 861 63 861 l 28 889 l 750 889 l 750 639 l 722 639 q 707 715 722 679 q 665 776 692 750 q 603 818 639 803 q 528 833 568 833 l 222 833 z "},"É":{"ha":806,"x_min":28,"x_max":750,"o":"m 528 833 q 603 818 568 833 q 665 776 639 803 q 707 715 692 750 q 722 639 722 679 l 750 639 l 750 889 l 28 889 l 28 861 q 87 837 63 861 q 111 778 111 813 l 111 111 q 87 52 111 76 q 28 28 63 28 l 28 0 l 750 0 l 750 250 l 722 250 q 707 174 722 210 q 665 113 692 139 q 603 71 639 86 q 528 56 568 56 l 222 56 l 222 417 l 389 417 q 488 376 447 417 q 528 278 528 336 l 556 278 l 556 611 l 528 611 q 488 513 528 553 q 389 472 447 472 l 222 472 l 222 833 l 528 833 m 333 944 l 389 1111 l 528 1111 l 389 944 l 333 944 z "},"Ê":{"ha":806,"x_min":28,"x_max":750,"o":"m 222 833 l 222 472 l 389 472 q 488 513 447 472 q 528 611 528 553 l 556 611 l 556 278 l 528 278 q 488 376 528 336 q 389 417 447 417 l 222 417 l 222 56 l 528 56 q 603 71 568 56 q 665 113 639 86 q 707 174 692 139 q 722 250 722 210 l 750 250 l 750 0 l 28 0 l 28 28 q 87 52 63 28 q 111 111 111 76 l 111 778 q 87 837 111 813 q 28 861 63 861 l 28 889 l 750 889 l 750 639 l 722 639 q 707 715 722 679 q 665 776 692 750 q 603 818 639 803 q 528 833 568 833 l 222 833 m 486 944 l 389 1014 l 292 944 l 236 944 l 361 1111 l 417 1111 l 542 944 l 486 944 z "},"Ë":{"ha":806,"x_min":28,"x_max":750,"o":"m 528 833 q 603 818 568 833 q 665 776 639 803 q 707 715 692 750 q 722 639 722 679 l 750 639 l 750 889 l 28 889 l 28 861 q 87 837 63 861 q 111 778 111 813 l 111 111 q 87 52 111 76 q 28 28 63 28 l 28 0 l 750 0 l 750 250 l 722 250 q 707 174 722 210 q 665 113 692 139 q 603 71 639 86 q 528 56 568 56 l 222 56 l 222 417 l 389 417 q 488 376 447 417 q 528 278 528 336 l 556 278 l 556 611 l 528 611 q 488 513 528 553 q 389 472 447 472 l 222 472 l 222 833 l 528 833 m 361 1028 q 341 978 361 999 q 292 958 321 958 q 242 978 263 958 q 222 1028 222 999 q 242 1077 222 1057 q 292 1097 263 1097 q 341 1077 321 1097 q 361 1028 361 1057 m 556 1028 q 535 978 556 999 q 486 958 515 958 q 437 978 457 958 q 417 1028 417 999 q 437 1077 417 1057 q 486 1097 457 1097 q 535 1077 515 1097 q 556 1028 556 1057 z "},"Ğ":{"ha":944,"x_min":56,"x_max":917,"o":"m 500 958 q 410 978 447 958 q 350 1021 374 997 q 306 1083 322 1047 l 319 1097 q 357 1069 332 1082 q 413 1050 378 1058 q 500 1042 447 1042 q 587 1050 553 1042 q 642 1069 621 1058 q 681 1097 667 1082 l 694 1083 q 649 1021 675 1047 q 589 978 625 997 q 500 958 553 958 m 917 444 l 917 417 q 858 392 882 417 q 833 333 833 368 l 833 139 q 750 63 799 96 q 646 10 708 33 q 500 -14 583 -14 q 337 11 417 -14 q 194 90 257 36 q 94 232 132 144 q 56 444 56 319 q 94 657 56 569 q 194 799 132 744 q 337 878 257 853 q 500 903 417 903 q 622 884 571 903 q 710 839 674 865 q 742 828 725 828 q 773 835 758 828 q 797 857 788 843 q 806 889 806 871 l 833 889 l 833 639 l 806 639 q 739 743 778 697 q 653 815 704 782 q 528 847 601 847 q 382 815 444 847 q 278 729 319 783 q 215 601 236 675 q 194 444 194 528 q 215 288 194 361 q 278 160 236 214 q 382 74 319 106 q 528 42 444 42 q 617 52 581 42 q 676 76 653 63 q 722 111 703 92 l 722 333 q 698 392 722 368 q 639 417 674 417 l 639 444 l 917 444 z "},"Ì":{"ha":333,"x_min":28,"x_max":306,"o":"m 306 861 q 247 837 271 861 q 222 778 222 813 l 222 111 q 247 52 222 76 q 306 28 271 28 l 306 0 l 28 0 l 28 28 q 87 52 63 28 q 111 111 111 76 l 111 778 q 87 837 111 813 q 28 861 63 861 l 28 889 l 306 889 l 306 861 m 167 944 l 28 1111 l 167 1111 l 222 944 l 167 944 z "},"Í":{"ha":333,"x_min":28,"x_max":306,"o":"m 111 944 l 167 1111 l 306 1111 l 167 944 l 111 944 m 306 889 l 28 889 l 28 861 q 87 837 63 861 q 111 778 111 813 l 111 111 q 87 52 111 76 q 28 28 63 28 l 28 0 l 306 0 l 306 28 q 247 52 271 28 q 222 111 222 76 l 222 778 q 247 837 222 813 q 306 861 271 861 l 306 889 z "},"Î":{"ha":333,"x_min":14,"x_max":319,"o":"m 306 861 q 247 837 271 861 q 222 778 222 813 l 222 111 q 247 52 222 76 q 306 28 271 28 l 306 0 l 28 0 l 28 28 q 87 52 63 28 q 111 111 111 76 l 111 778 q 87 837 111 813 q 28 861 63 861 l 28 889 l 306 889 l 306 861 m 264 944 l 167 1014 l 69 944 l 14 944 l 139 1111 l 194 1111 l 319 944 l 264 944 z "},"Ï":{"ha":333,"x_min":0,"x_max":333,"o":"m 306 889 l 28 889 l 28 861 q 87 837 63 861 q 111 778 111 813 l 111 111 q 87 52 111 76 q 28 28 63 28 l 28 0 l 306 0 l 306 28 q 247 52 271 28 q 222 111 222 76 l 222 778 q 247 837 222 813 q 306 861 271 861 l 306 889 m 139 1028 q 119 978 139 999 q 69 958 99 958 q 20 978 40 958 q 0 1028 0 999 q 20 1077 0 1057 q 69 1097 40 1097 q 119 1077 99 1097 q 139 1028 139 1057 m 333 1028 q 313 978 333 999 q 264 958 293 958 q 215 978 235 958 q 194 1028 194 999 q 215 1077 194 1057 q 264 1097 235 1097 q 313 1077 293 1097 q 333 1028 333 1057 z "},"Ñ":{"ha":889,"x_min":28,"x_max":861,"o":"m 542 1042 q 578 1046 563 1042 q 604 1056 593 1050 q 625 1069 617 1061 l 639 1056 q 607 1007 625 1028 q 569 973 592 988 q 514 958 546 958 q 464 967 482 958 q 431 985 446 975 q 397 1005 415 996 q 347 1014 378 1014 q 311 1010 326 1014 q 285 1000 296 1006 q 264 986 272 994 l 250 1000 q 281 1049 263 1026 q 319 1082 296 1067 q 375 1097 343 1097 q 424 1088 406 1097 q 458 1069 443 1079 q 492 1050 474 1058 q 542 1042 510 1042 m 861 889 l 861 861 q 802 837 826 861 q 778 778 778 813 l 778 0 l 722 0 l 167 740 l 167 111 q 191 52 167 76 q 250 28 215 28 l 250 0 l 28 0 l 28 28 q 87 52 63 28 q 111 111 111 76 l 111 815 l 106 822 q 72 851 92 842 q 28 861 51 861 l 28 889 l 194 889 l 722 185 l 722 778 q 698 837 722 813 q 639 861 674 861 l 639 889 l 861 889 z "},"Ò":{"ha":1000,"x_min":56,"x_max":944,"o":"m 500 903 q 663 878 583 903 q 806 799 743 853 q 906 657 868 744 q 944 444 944 569 q 906 232 944 319 q 806 90 868 144 q 663 11 743 36 q 500 -14 583 -14 q 337 11 417 -14 q 194 90 257 36 q 94 232 132 144 q 56 444 56 319 q 94 657 56 569 q 194 799 132 744 q 337 878 257 853 q 500 903 417 903 m 500 42 q 629 74 572 42 q 726 160 686 106 q 785 288 765 214 q 806 444 806 361 q 785 601 806 528 q 726 729 765 675 q 629 815 686 783 q 500 847 572 847 q 370 815 426 847 q 274 729 314 783 q 215 601 235 675 q 194 444 194 528 q 215 288 194 361 q 274 160 235 214 q 370 74 314 106 q 500 42 426 42 m 500 944 l 361 1111 l 500 1111 l 556 944 l 500 944 z "},"Ó":{"ha":1000,"x_min":56,"x_max":944,"o":"m 444 944 l 500 1111 l 639 1111 l 500 944 l 444 944 m 500 903 q 337 878 417 903 q 194 799 257 853 q 94 657 132 744 q 56 444 56 569 q 94 232 56 319 q 194 90 132 144 q 337 11 257 36 q 500 -14 417 -14 q 663 11 583 -14 q 806 90 743 36 q 906 232 868 144 q 944 444 944 319 q 906 657 944 569 q 806 799 868 744 q 663 878 743 853 q 500 903 583 903 m 500 42 q 370 74 426 42 q 274 160 314 106 q 215 288 235 214 q 194 444 194 361 q 215 601 194 528 q 274 729 235 675 q 370 815 314 783 q 500 847 426 847 q 629 815 572 847 q 726 729 686 783 q 785 601 765 675 q 806 444 806 528 q 785 288 806 361 q 726 160 765 214 q 629 74 686 106 q 500 42 572 42 z "},"Ô":{"ha":1000,"x_min":56,"x_max":944,"o":"m 500 903 q 663 878 583 903 q 806 799 743 853 q 906 657 868 744 q 944 444 944 569 q 906 232 944 319 q 806 90 868 144 q 663 11 743 36 q 500 -14 583 -14 q 337 11 417 -14 q 194 90 257 36 q 94 232 132 144 q 56 444 56 319 q 94 657 56 569 q 194 799 132 744 q 337 878 257 853 q 500 903 417 903 m 500 42 q 629 74 572 42 q 726 160 686 106 q 785 288 765 214 q 806 444 806 361 q 785 601 806 528 q 726 729 765 675 q 629 815 686 783 q 500 847 572 847 q 370 815 426 847 q 274 729 314 783 q 215 601 235 675 q 194 444 194 528 q 215 288 194 361 q 274 160 235 214 q 370 74 314 106 q 500 42 426 42 m 597 944 l 500 1014 l 403 944 l 347 944 l 472 1111 l 528 1111 l 653 944 l 597 944 z "},"Õ":{"ha":1000,"x_min":56,"x_max":944,"o":"m 500 903 q 663 878 583 903 q 806 799 743 853 q 906 657 868 744 q 944 444 944 569 q 906 232 944 319 q 806 90 868 144 q 663 11 743 36 q 500 -14 583 -14 q 337 11 417 -14 q 194 90 257 36 q 94 232 132 144 q 56 444 56 319 q 94 657 56 569 q 194 799 132 744 q 337 878 257 853 q 500 903 417 903 m 500 42 q 629 74 572 42 q 726 160 686 106 q 785 288 765 214 q 806 444 806 361 q 785 601 806 528 q 726 729 765 675 q 629 815 686 783 q 500 847 572 847 q 370 815 426 847 q 274 729 314 783 q 215 601 235 675 q 194 444 194 528 q 215 288 194 361 q 274 160 235 214 q 370 74 314 106 q 500 42 426 42 m 597 1042 q 633 1046 618 1042 q 660 1056 649 1050 q 681 1069 672 1061 l 694 1056 q 663 1007 681 1028 q 624 973 647 988 q 569 958 601 958 q 519 967 538 958 q 486 985 501 975 q 452 1005 471 996 q 403 1014 433 1014 q 367 1010 382 1014 q 340 1000 351 1006 q 319 986 328 994 l 306 1000 q 336 1049 318 1026 q 375 1082 351 1067 q 431 1097 399 1097 q 480 1088 461 1097 q 514 1069 499 1079 q 547 1050 529 1058 q 597 1042 565 1042 z "},"Ö":{"ha":1000,"x_min":56,"x_max":944,"o":"m 500 903 q 337 878 417 903 q 194 799 257 853 q 94 657 132 744 q 56 444 56 569 q 94 232 56 319 q 194 90 132 144 q 337 11 257 36 q 500 -14 417 -14 q 663 11 583 -14 q 806 90 743 36 q 906 232 868 144 q 944 444 944 319 q 906 657 944 569 q 806 799 868 744 q 663 878 743 853 q 500 903 583 903 m 500 42 q 370 74 426 42 q 274 160 314 106 q 215 288 235 214 q 194 444 194 361 q 215 601 194 528 q 274 729 235 675 q 370 815 314 783 q 500 847 426 847 q 629 815 572 847 q 726 729 686 783 q 785 601 765 675 q 806 444 806 528 q 785 288 806 361 q 726 160 765 214 q 629 74 686 106 q 500 42 572 42 m 472 1028 q 452 978 472 999 q 403 958 432 958 q 353 978 374 958 q 333 1028 333 999 q 353 1077 333 1057 q 403 1097 374 1097 q 452 1077 432 1097 q 472 1028 472 1057 m 667 1028 q 647 978 667 999 q 597 958 626 958 q 548 978 568 958 q 528 1028 528 999 q 548 1077 528 1057 q 597 1097 568 1097 q 647 1077 626 1097 q 667 1028 667 1057 z "},"Ø":{"ha":1000,"x_min":56,"x_max":944,"o":"m 792 810 q 902 667 860 757 q 944 444 944 578 q 906 232 944 319 q 806 90 868 144 q 663 11 743 36 q 500 -14 583 -14 q 369 1 433 -14 q 250 50 306 17 l 194 -28 l 153 0 l 208 79 q 98 222 140 132 q 56 444 56 311 q 94 657 56 569 q 194 799 132 744 q 337 878 257 853 q 500 903 417 903 q 631 888 567 903 q 750 839 694 872 l 806 917 l 847 889 l 792 810 m 194 444 q 214 291 194 363 q 271 165 233 219 l 697 764 q 610 826 660 804 q 500 847 561 847 q 370 815 426 847 q 274 729 314 783 q 215 601 235 675 q 194 444 194 528 m 500 42 q 629 74 572 42 q 726 160 686 106 q 785 288 765 214 q 806 444 806 361 q 786 598 806 526 q 729 724 767 669 l 303 125 q 390 63 340 85 q 500 42 439 42 z "},"Œ":{"ha":1319,"x_min":56,"x_max":1264,"o":"m 1236 639 q 1221 715 1236 679 q 1179 776 1206 750 q 1117 818 1153 803 q 1042 833 1082 833 l 736 833 l 736 472 l 931 472 q 1029 513 989 472 q 1069 611 1069 553 l 1097 611 l 1097 278 l 1069 278 q 1029 376 1069 336 q 931 417 989 417 l 736 417 l 736 56 l 1042 56 q 1117 71 1082 56 q 1179 113 1153 86 q 1221 174 1206 139 q 1236 250 1236 210 l 1264 250 l 1264 0 l 625 0 q 589 -7 608 -4 q 549 -12 572 -10 q 500 -14 526 -14 q 337 11 417 -14 q 194 90 257 36 q 94 232 132 144 q 56 444 56 319 q 94 657 56 569 q 194 799 132 744 q 337 878 257 853 q 500 903 417 903 q 549 901 526 903 q 589 896 572 899 q 625 889 608 892 l 1264 889 l 1264 639 l 1236 639 m 625 818 q 589 832 608 826 q 549 842 572 838 q 500 847 526 847 q 370 815 426 847 q 274 729 314 783 q 215 601 235 675 q 194 444 194 528 q 215 288 194 361 q 274 160 235 214 q 370 74 314 106 q 500 42 426 42 q 549 46 526 42 q 589 56 572 50 q 625 71 608 61 l 625 818 z "},"Š":{"ha":778,"x_min":56,"x_max":722,"o":"m 361 944 l 236 1111 l 292 1111 l 389 1042 l 486 1111 l 542 1111 l 417 944 l 361 944 m 194 681 q 217 599 194 631 q 277 547 240 568 q 361 512 314 525 q 458 485 408 499 q 556 453 508 471 q 640 409 603 436 q 699 340 676 382 q 722 236 722 299 q 700 133 722 179 q 639 53 678 86 q 547 3 600 21 q 431 -14 493 -14 q 306 9 363 -14 q 206 64 250 32 q 165 78 186 78 q 125 69 143 78 q 95 42 107 60 q 83 0 83 24 l 56 0 l 56 250 l 83 250 q 181 153 128 196 q 283 86 225 117 q 403 56 340 56 q 535 95 486 56 q 583 208 583 135 q 560 282 583 253 q 501 331 538 311 q 417 365 464 350 q 319 394 369 379 q 222 428 269 410 q 138 476 175 447 q 78 548 101 506 q 56 653 56 590 q 78 750 56 704 q 139 830 100 796 q 231 883 178 864 q 347 903 285 903 q 461 885 413 903 q 544 840 510 867 q 575 829 558 829 q 606 836 592 829 q 630 857 621 843 q 639 889 639 871 l 667 889 l 667 639 l 639 639 q 569 743 608 697 q 486 815 535 782 q 375 847 438 847 q 243 801 292 847 q 194 681 194 754 z "},"Ş":{"ha":778,"x_min":56,"x_max":722,"o":"m 722 236 q 700 133 722 179 q 639 53 678 86 q 547 3 600 21 q 431 -14 493 -14 l 415 -44 q 476 -78 451 -51 q 500 -139 500 -104 q 467 -208 500 -179 q 389 -236 435 -236 q 346 -229 360 -236 q 333 -222 339 -226 l 333 -194 q 343 -201 338 -199 q 375 -208 354 -208 q 415 -192 399 -208 q 431 -153 431 -176 q 415 -113 431 -129 q 375 -97 399 -97 l 361 -97 l 403 -12 q 295 14 344 -8 q 206 64 246 36 q 165 78 186 78 q 125 69 143 78 q 95 42 107 60 q 83 0 83 24 l 56 0 l 56 250 l 83 250 q 181 153 128 196 q 283 86 225 117 q 403 56 340 56 q 535 95 486 56 q 583 208 583 135 q 560 282 583 253 q 501 331 538 311 q 417 365 464 350 q 319 394 369 379 q 222 428 269 410 q 138 476 175 447 q 78 548 101 506 q 56 653 56 590 q 78 750 56 704 q 139 830 100 796 q 231 883 178 864 q 347 903 285 903 q 461 885 413 903 q 544 840 510 867 q 575 829 558 829 q 606 836 592 829 q 630 857 621 843 q 639 889 639 871 l 667 889 l 667 639 l 639 639 q 569 743 608 697 q 486 815 535 782 q 375 847 438 847 q 243 801 292 847 q 194 681 194 754 q 217 599 194 631 q 277 547 240 568 q 361 512 314 525 q 458 485 408 499 q 556 453 508 471 q 640 409 603 436 q 699 340 676 382 q 722 236 722 299 z "},"Ù":{"ha":917,"x_min":28,"x_max":889,"o":"m 889 889 l 889 861 q 830 837 854 861 q 806 778 806 813 l 806 333 q 781 185 806 250 q 710 76 756 121 q 600 9 664 32 q 458 -14 536 -14 q 317 9 381 -14 q 207 76 253 32 q 136 185 161 121 q 111 333 111 250 l 111 778 q 87 837 111 813 q 28 861 63 861 l 28 889 l 306 889 l 306 861 q 247 837 271 861 q 222 778 222 813 l 222 333 q 238 228 222 281 q 287 135 254 176 q 369 67 319 93 q 486 42 418 42 q 603 67 554 42 q 685 135 653 93 q 734 228 718 176 q 750 333 750 281 l 750 778 q 726 837 750 813 q 667 861 701 861 l 667 889 l 889 889 m 486 944 l 347 1111 l 486 1111 l 542 944 l 486 944 z "},"Ú":{"ha":917,"x_min":28,"x_max":889,"o":"m 667 889 l 667 861 q 726 837 701 861 q 750 778 750 813 l 750 333 q 734 228 750 281 q 685 135 718 176 q 603 67 653 93 q 486 42 554 42 q 369 67 418 42 q 287 135 319 93 q 238 228 254 176 q 222 333 222 281 l 222 778 q 247 837 222 813 q 306 861 271 861 l 306 889 l 28 889 l 28 861 q 87 837 63 861 q 111 778 111 813 l 111 333 q 136 185 111 250 q 207 76 161 121 q 317 9 253 32 q 458 -14 381 -14 q 600 9 536 -14 q 710 76 664 32 q 781 185 756 121 q 806 333 806 250 l 806 778 q 830 837 806 813 q 889 861 854 861 l 889 889 l 667 889 m 431 944 l 486 1111 l 625 1111 l 486 944 l 431 944 z "},"Û":{"ha":917,"x_min":28,"x_max":889,"o":"m 889 889 l 889 861 q 830 837 854 861 q 806 778 806 813 l 806 333 q 781 185 806 250 q 710 76 756 121 q 600 9 664 32 q 458 -14 536 -14 q 317 9 381 -14 q 207 76 253 32 q 136 185 161 121 q 111 333 111 250 l 111 778 q 87 837 111 813 q 28 861 63 861 l 28 889 l 306 889 l 306 861 q 247 837 271 861 q 222 778 222 813 l 222 333 q 238 228 222 281 q 287 135 254 176 q 369 67 319 93 q 486 42 418 42 q 603 67 554 42 q 685 135 653 93 q 734 228 718 176 q 750 333 750 281 l 750 778 q 726 837 750 813 q 667 861 701 861 l 667 889 l 889 889 m 583 944 l 486 1014 l 389 944 l 333 944 l 458 1111 l 514 1111 l 639 944 l 583 944 z "},"Ü":{"ha":917,"x_min":28,"x_max":889,"o":"m 667 889 l 667 861 q 726 837 701 861 q 750 778 750 813 l 750 333 q 734 228 750 281 q 685 135 718 176 q 603 67 653 93 q 486 42 554 42 q 369 67 418 42 q 287 135 319 93 q 238 228 254 176 q 222 333 222 281 l 222 778 q 247 837 222 813 q 306 861 271 861 l 306 889 l 28 889 l 28 861 q 87 837 63 861 q 111 778 111 813 l 111 333 q 136 185 111 250 q 207 76 161 121 q 317 9 253 32 q 458 -14 381 -14 q 600 9 536 -14 q 710 76 664 32 q 781 185 756 121 q 806 333 806 250 l 806 778 q 830 837 806 813 q 889 861 854 861 l 889 889 l 667 889 m 458 1028 q 438 978 458 999 q 389 958 418 958 q 340 978 360 958 q 319 1028 319 999 q 340 1077 319 1057 q 389 1097 360 1097 q 438 1077 418 1097 q 458 1028 458 1057 m 653 1028 q 633 978 653 999 q 583 958 613 958 q 534 978 554 958 q 514 1028 514 999 q 534 1077 514 1057 q 583 1097 554 1097 q 633 1077 613 1097 q 653 1028 653 1057 z "},"Ý":{"ha":861,"x_min":0,"x_max":861,"o":"m 403 944 l 458 1111 l 597 1111 l 458 944 l 403 944 m 639 889 l 639 861 q 667 843 658 861 q 665 810 676 825 l 450 517 l 253 814 q 251 845 242 829 q 278 861 260 861 l 278 889 l 0 889 l 0 861 q 76 842 40 861 q 136 788 113 822 l 361 449 l 361 97 q 341 48 361 68 q 292 28 321 28 l 292 0 l 542 0 l 542 28 q 492 48 513 28 q 472 97 472 68 l 472 454 l 718 789 q 781 842 743 824 q 861 861 818 861 l 861 889 l 639 889 z "},"Ÿ":{"ha":861,"x_min":0,"x_max":861,"o":"m 639 889 l 639 861 q 667 843 658 861 q 665 810 676 825 l 450 517 l 253 814 q 251 845 242 829 q 278 861 260 861 l 278 889 l 0 889 l 0 861 q 76 842 40 861 q 136 788 113 822 l 361 449 l 361 97 q 341 48 361 68 q 292 28 321 28 l 292 0 l 542 0 l 542 28 q 492 48 513 28 q 472 97 472 68 l 472 454 l 718 789 q 781 842 743 824 q 861 861 818 861 l 861 889 l 639 889 m 431 1028 q 410 978 431 999 q 361 958 390 958 q 312 978 332 958 q 292 1028 292 999 q 312 1077 292 1057 q 361 1097 332 1097 q 410 1077 390 1097 q 431 1028 431 1057 m 625 1028 q 605 978 625 999 q 556 958 585 958 q 506 978 526 958 q 486 1028 486 999 q 506 1077 486 1057 q 556 1097 526 1097 q 605 1077 585 1097 q 625 1028 625 1057 z "},"Ž":{"ha":833,"x_min":56,"x_max":778,"o":"m 319 1111 l 417 1042 l 514 1111 l 569 1111 l 444 944 l 389 944 l 264 1111 l 319 1111 m 778 250 l 778 0 l 56 0 l 56 56 l 603 833 l 278 833 q 202 818 238 833 q 140 776 167 803 q 99 715 114 750 q 83 639 83 679 l 56 639 l 56 889 l 778 889 l 192 56 l 556 56 q 631 71 596 56 q 693 113 667 86 q 735 174 719 139 q 750 250 750 210 l 778 250 z "},"ß":{"ha":806,"x_min":28,"x_max":778,"o":"m 567 475 q 719 387 660 447 q 778 222 778 326 q 758 133 778 175 q 701 58 738 90 q 614 6 665 25 q 500 -14 563 -14 q 418 -1 458 -14 q 347 35 378 11 q 297 92 315 58 q 278 167 278 125 q 302 226 278 201 q 361 250 326 250 q 420 226 396 250 q 444 167 444 201 q 422 110 444 133 q 365 83 399 86 q 413 52 385 63 q 472 42 442 42 q 545 58 514 42 q 597 101 576 75 q 628 158 618 126 q 639 222 639 190 q 615 322 639 279 q 552 391 592 364 q 463 431 513 418 q 361 444 413 444 l 361 500 l 389 500 q 450 510 419 500 q 503 542 481 521 q 541 594 526 563 q 556 667 556 625 q 541 742 556 708 q 503 799 526 775 q 450 835 481 822 q 389 847 419 847 q 327 835 357 847 q 274 799 297 822 q 237 742 251 775 q 222 667 222 708 l 222 0 l 28 0 l 28 28 q 87 52 63 28 q 111 111 111 76 l 111 667 q 127 751 111 708 q 178 826 143 793 q 269 881 214 860 q 403 903 325 903 q 525 885 471 903 q 617 837 579 868 q 674 762 654 806 q 694 667 694 718 q 662 551 694 599 q 567 475 629 503 z "},"à":{"ha":694,"x_min":0,"x_max":694,"o":"m 586 103 q 628 48 599 68 q 694 28 658 28 l 694 0 l 417 0 l 417 28 q 463 51 446 28 q 468 101 479 75 l 444 167 l 190 167 l 168 106 q 165 78 163 92 q 174 53 167 64 q 194 35 182 42 q 222 28 207 28 l 222 0 l 0 0 l 0 28 q 65 48 36 28 q 107 103 94 68 l 315 667 l 375 667 l 586 103 m 424 222 l 317 507 l 211 222 l 424 222 m 306 722 l 167 889 l 306 889 l 361 722 l 306 722 z "},"á":{"ha":694,"x_min":0,"x_max":694,"o":"m 586 103 l 375 667 l 315 667 l 107 103 q 65 48 94 68 q 0 28 36 28 l 0 0 l 222 0 l 222 28 q 194 35 207 28 q 174 53 182 42 q 165 78 167 64 q 168 106 163 92 l 190 167 l 444 167 l 468 101 q 463 51 479 75 q 417 28 446 28 l 417 0 l 694 0 l 694 28 q 628 48 658 28 q 586 103 599 68 m 211 222 l 317 507 l 424 222 l 211 222 m 333 722 l 389 889 l 528 889 l 389 722 l 333 722 z "},"å":{"ha":694,"x_min":0,"x_max":694,"o":"m 586 103 q 628 48 599 68 q 694 28 658 28 l 694 0 l 417 0 l 417 28 q 463 51 446 28 q 468 101 479 75 l 444 167 l 190 167 l 168 106 q 165 78 163 92 q 174 53 167 64 q 194 35 182 42 q 222 28 207 28 l 222 0 l 0 0 l 0 28 q 65 48 36 28 q 107 103 94 68 l 315 667 l 375 667 l 586 103 m 424 222 l 317 507 l 211 222 l 424 222 m 347 917 q 426 884 393 917 q 458 806 458 851 q 426 727 458 760 q 347 694 393 694 q 269 727 301 694 q 236 806 236 760 q 269 884 236 851 q 347 917 301 917 m 347 750 q 387 766 371 750 q 403 806 403 782 q 387 845 403 829 q 347 861 371 861 q 308 845 324 861 q 292 806 292 829 q 308 766 292 782 q 347 750 324 750 z "},"â":{"ha":694,"x_min":0,"x_max":694,"o":"m 586 103 q 628 48 599 68 q 694 28 658 28 l 694 0 l 417 0 l 417 28 q 463 51 446 28 q 468 101 479 75 l 444 167 l 190 167 l 168 106 q 165 78 163 92 q 174 53 167 64 q 194 35 182 42 q 222 28 207 28 l 222 0 l 0 0 l 0 28 q 65 48 36 28 q 107 103 94 68 l 315 667 l 375 667 l 586 103 m 424 222 l 317 507 l 211 222 l 424 222 m 444 722 l 347 792 l 250 722 l 194 722 l 319 889 l 375 889 l 500 722 l 444 722 z "},"ã":{"ha":694,"x_min":0,"x_max":694,"o":"m 586 103 q 628 48 599 68 q 694 28 658 28 l 694 0 l 417 0 l 417 28 q 463 51 446 28 q 468 101 479 75 l 444 167 l 190 167 l 168 106 q 165 78 163 92 q 174 53 167 64 q 194 35 182 42 q 222 28 207 28 l 222 0 l 0 0 l 0 28 q 65 48 36 28 q 107 103 94 68 l 315 667 l 375 667 l 586 103 m 424 222 l 317 507 l 211 222 l 424 222 m 444 819 q 481 824 465 819 q 507 833 496 828 q 528 847 519 839 l 542 833 q 510 785 528 806 q 472 751 494 765 q 417 736 449 736 q 367 744 385 736 q 333 763 349 753 q 299 783 318 774 q 250 792 281 792 q 214 788 229 792 q 188 778 199 783 q 167 764 175 772 l 153 778 q 183 826 165 804 q 222 860 199 844 q 278 875 246 875 q 327 866 308 875 q 361 847 346 857 q 394 828 376 836 q 444 819 413 819 z "},"ä":{"ha":694,"x_min":0,"x_max":694,"o":"m 586 103 l 375 667 l 315 667 l 107 103 q 65 48 94 68 q 0 28 36 28 l 0 0 l 222 0 l 222 28 q 194 35 207 28 q 174 53 182 42 q 165 78 167 64 q 168 106 163 92 l 190 167 l 444 167 l 468 101 q 463 51 479 75 q 417 28 446 28 l 417 0 l 694 0 l 694 28 q 628 48 658 28 q 586 103 599 68 m 211 222 l 317 507 l 424 222 l 211 222 m 319 806 q 299 756 319 776 q 250 736 279 736 q 201 756 221 736 q 181 806 181 776 q 201 855 181 835 q 250 875 221 875 q 299 855 279 875 q 319 806 319 835 m 514 806 q 494 756 514 776 q 444 736 474 736 q 395 756 415 736 q 375 806 375 776 q 395 855 375 835 q 444 875 415 875 q 494 855 474 875 q 514 806 514 835 z "},"ă":{"ha":694,"x_min":0,"x_max":694,"o":"m 586 103 q 628 48 599 68 q 694 28 658 28 l 694 0 l 417 0 l 417 28 q 463 51 446 28 q 468 101 479 75 l 444 167 l 190 167 l 168 106 q 165 78 163 92 q 174 53 167 64 q 194 35 182 42 q 222 28 207 28 l 222 0 l 0 0 l 0 28 q 65 48 36 28 q 107 103 94 68 l 315 667 l 375 667 l 586 103 m 424 222 l 317 507 l 211 222 l 424 222 m 347 819 q 434 828 400 819 q 489 847 468 836 q 528 875 514 860 l 542 861 q 496 799 522 825 q 436 756 472 775 q 347 736 400 736 q 258 756 294 736 q 197 799 221 775 q 153 861 169 825 l 167 875 q 204 847 179 860 q 260 828 225 836 q 347 819 294 819 z "},"æ":{"ha":1028,"x_min":0,"x_max":972,"o":"m 944 444 q 931 509 944 479 q 895 562 918 539 q 842 598 872 585 q 778 611 813 611 l 611 611 l 611 361 l 722 361 q 781 385 757 361 q 806 444 806 410 l 833 444 l 833 222 l 806 222 q 781 281 806 257 q 722 306 757 306 l 611 306 l 611 56 l 778 56 q 842 69 813 56 q 895 105 872 82 q 931 158 918 128 q 944 222 944 188 l 972 222 l 972 0 l 417 0 l 417 28 q 476 52 451 28 q 500 111 500 76 l 500 496 l 300 222 l 500 222 l 500 167 l 260 167 l 196 79 q 194 46 185 64 q 222 28 203 28 l 222 0 l 0 0 l 0 28 q 81 47 43 28 q 143 100 118 65 l 494 583 q 465 623 486 607 q 417 639 444 639 l 417 667 l 972 667 l 972 444 l 944 444 z "},"ç":{"ha":722,"x_min":56,"x_max":667,"o":"m 431 625 q 329 603 374 625 q 255 542 285 581 q 210 449 225 503 q 194 333 194 396 q 210 217 194 271 q 255 125 225 164 q 329 64 285 86 q 431 42 374 42 q 550 79 493 42 q 639 181 607 117 l 667 181 q 567 44 633 93 q 417 -12 500 -6 l 401 -44 q 462 -78 438 -53 q 486 -139 486 -104 q 453 -208 486 -179 q 375 -236 421 -236 q 332 -229 346 -236 q 319 -222 325 -226 l 319 -194 q 329 -201 324 -199 q 361 -208 340 -208 q 401 -192 385 -208 q 417 -153 417 -176 q 401 -113 417 -129 q 361 -97 385 -97 l 347 -97 l 389 -14 q 267 5 326 -14 q 160 65 207 24 q 84 173 113 107 q 56 333 56 239 q 84 492 56 426 q 160 600 113 558 q 267 661 207 642 q 389 681 326 681 q 563 626 488 681 q 588 618 575 618 q 613 624 601 618 q 631 640 624 629 q 639 667 639 651 l 667 667 l 667 444 l 639 444 q 556 576 611 526 q 431 625 501 625 z "},"è":{"ha":639,"x_min":28,"x_max":583,"o":"m 556 444 q 542 509 556 479 q 506 562 529 539 q 453 598 483 585 q 389 611 424 611 l 222 611 l 222 361 l 333 361 q 392 385 368 361 q 417 444 417 410 l 444 444 l 444 222 l 417 222 q 392 281 417 257 q 333 306 368 306 l 222 306 l 222 56 l 389 56 q 453 69 424 56 q 506 105 483 82 q 542 158 529 128 q 556 222 556 188 l 583 222 l 583 0 l 28 0 l 28 28 q 87 52 63 28 q 111 111 111 76 l 111 556 q 87 615 111 590 q 28 639 63 639 l 28 667 l 583 667 l 583 444 l 556 444 m 306 722 l 167 889 l 306 889 l 361 722 l 306 722 z "},"é":{"ha":639,"x_min":28,"x_max":583,"o":"m 583 444 l 583 667 l 28 667 l 28 639 q 87 615 63 639 q 111 556 111 590 l 111 111 q 87 52 111 76 q 28 28 63 28 l 28 0 l 583 0 l 583 222 l 556 222 q 542 158 556 188 q 506 105 529 128 q 453 69 483 82 q 389 56 424 56 l 222 56 l 222 306 l 333 306 q 392 281 368 306 q 417 222 417 257 l 444 222 l 444 444 l 417 444 q 392 385 417 410 q 333 361 368 361 l 222 361 l 222 611 l 389 611 q 453 598 424 611 q 506 562 483 585 q 542 509 529 539 q 556 444 556 479 l 583 444 m 250 722 l 306 889 l 444 889 l 306 722 l 250 722 z "},"ê":{"ha":639,"x_min":28,"x_max":583,"o":"m 556 444 q 542 509 556 479 q 506 562 529 539 q 453 598 483 585 q 389 611 424 611 l 222 611 l 222 361 l 333 361 q 392 385 368 361 q 417 444 417 410 l 444 444 l 444 222 l 417 222 q 392 281 417 257 q 333 306 368 306 l 222 306 l 222 56 l 389 56 q 453 69 424 56 q 506 105 483 82 q 542 158 529 128 q 556 222 556 188 l 583 222 l 583 0 l 28 0 l 28 28 q 87 52 63 28 q 111 111 111 76 l 111 556 q 87 615 111 590 q 28 639 63 639 l 28 667 l 583 667 l 583 444 l 556 444 m 403 722 l 306 792 l 208 722 l 153 722 l 278 889 l 333 889 l 458 722 l 403 722 z "},"ë":{"ha":639,"x_min":28,"x_max":583,"o":"m 583 444 l 583 667 l 28 667 l 28 639 q 87 615 63 639 q 111 556 111 590 l 111 111 q 87 52 111 76 q 28 28 63 28 l 28 0 l 583 0 l 583 222 l 556 222 q 542 158 556 188 q 506 105 529 128 q 453 69 483 82 q 389 56 424 56 l 222 56 l 222 306 l 333 306 q 392 281 368 306 q 417 222 417 257 l 444 222 l 444 444 l 417 444 q 392 385 417 410 q 333 361 368 361 l 222 361 l 222 611 l 389 611 q 453 598 424 611 q 506 562 483 585 q 542 509 529 539 q 556 444 556 479 l 583 444 m 278 806 q 258 756 278 776 q 208 736 238 736 q 159 756 179 736 q 139 806 139 776 q 159 855 139 835 q 208 875 179 875 q 258 855 238 875 q 278 806 278 835 m 472 806 q 452 756 472 776 q 403 736 432 736 q 353 756 374 736 q 333 806 333 776 q 353 855 333 835 q 403 875 374 875 q 452 855 432 875 q 472 806 472 835 z "},"ğ":{"ha":750,"x_min":56,"x_max":722,"o":"m 389 736 q 299 756 336 736 q 239 799 263 775 q 194 861 211 825 l 208 875 q 246 847 221 860 q 301 828 267 836 q 389 819 336 819 q 476 828 442 819 q 531 847 510 836 q 569 875 556 860 l 583 861 q 538 799 564 825 q 478 756 514 775 q 389 736 442 736 m 722 333 l 722 306 q 683 290 699 306 q 667 250 667 274 l 667 111 q 600 49 639 75 q 514 6 565 25 q 389 -14 463 -14 q 267 5 326 -14 q 160 65 207 24 q 84 173 113 107 q 56 333 56 239 q 84 492 56 426 q 160 600 113 558 q 267 661 207 642 q 389 681 326 681 q 563 626 488 681 q 588 618 575 618 q 613 624 601 618 q 631 640 624 629 q 639 667 639 651 l 667 667 l 667 444 l 639 444 q 556 576 611 526 q 431 625 501 625 q 329 603 374 625 q 255 542 285 581 q 210 449 225 503 q 194 333 194 396 q 210 217 194 271 q 255 125 225 164 q 329 64 285 86 q 431 42 374 42 q 485 48 463 42 q 524 63 508 54 q 556 83 542 71 l 556 250 q 540 290 556 274 q 500 306 524 306 l 500 333 l 722 333 z "},"ì":{"ha":333,"x_min":28,"x_max":306,"o":"m 306 639 q 247 615 271 639 q 222 556 222 590 l 222 111 q 247 52 222 76 q 306 28 271 28 l 306 0 l 28 0 l 28 28 q 87 52 63 28 q 111 111 111 76 l 111 556 q 87 615 111 590 q 28 639 63 639 l 28 667 l 306 667 l 306 639 m 167 722 l 28 889 l 167 889 l 222 722 l 167 722 z "},"í":{"ha":333,"x_min":28,"x_max":306,"o":"m 306 667 l 28 667 l 28 639 q 87 615 63 639 q 111 556 111 590 l 111 111 q 87 52 111 76 q 28 28 63 28 l 28 0 l 306 0 l 306 28 q 247 52 271 28 q 222 111 222 76 l 222 556 q 247 615 222 590 q 306 639 271 639 l 306 667 m 111 722 l 167 889 l 306 889 l 167 722 l 111 722 z "},"î":{"ha":333,"x_min":14,"x_max":319,"o":"m 306 639 q 247 615 271 639 q 222 556 222 590 l 222 111 q 247 52 222 76 q 306 28 271 28 l 306 0 l 28 0 l 28 28 q 87 52 63 28 q 111 111 111 76 l 111 556 q 87 615 111 590 q 28 639 63 639 l 28 667 l 306 667 l 306 639 m 264 722 l 167 792 l 69 722 l 14 722 l 139 889 l 194 889 l 319 722 l 264 722 z "},"ï":{"ha":333,"x_min":0,"x_max":333,"o":"m 306 667 l 28 667 l 28 639 q 87 615 63 639 q 111 556 111 590 l 111 111 q 87 52 111 76 q 28 28 63 28 l 28 0 l 306 0 l 306 28 q 247 52 271 28 q 222 111 222 76 l 222 556 q 247 615 222 590 q 306 639 271 639 l 306 667 m 139 806 q 119 756 139 776 q 69 736 99 736 q 20 756 40 736 q 0 806 0 776 q 20 855 0 835 q 69 875 40 875 q 119 855 99 875 q 139 806 139 835 m 333 806 q 313 756 333 776 q 264 736 293 736 q 215 756 235 736 q 194 806 194 776 q 215 855 194 835 q 264 875 235 875 q 313 855 293 875 q 333 806 333 835 z "},"ñ":{"ha":722,"x_min":28,"x_max":694,"o":"m 264 792 q 228 788 243 792 q 201 778 213 783 q 181 764 189 772 l 167 778 q 197 826 179 804 q 236 860 213 844 q 292 875 260 875 q 341 866 322 875 q 375 847 360 857 q 408 828 390 836 q 458 819 426 819 q 494 824 479 819 q 521 833 510 828 q 542 847 533 839 l 556 833 q 524 785 542 806 q 485 751 508 765 q 431 736 463 736 q 381 744 399 736 q 347 763 363 753 q 313 783 332 774 q 264 792 294 792 m 694 667 l 694 639 q 635 615 660 639 q 611 556 611 590 l 611 0 l 556 0 l 167 518 l 167 111 q 191 52 167 76 q 250 28 215 28 l 250 0 l 28 0 l 28 28 q 87 52 63 28 q 111 111 111 76 l 111 593 l 106 600 q 72 629 92 619 q 28 639 51 639 l 28 667 l 194 667 l 556 185 l 556 556 q 531 615 556 590 q 472 639 507 639 l 472 667 l 694 667 z "},"ò":{"ha":778,"x_min":56,"x_max":722,"o":"m 389 681 q 511 661 451 681 q 618 600 571 642 q 694 492 665 558 q 722 333 722 426 q 694 173 722 239 q 618 65 665 107 q 511 5 571 24 q 389 -14 451 -14 q 267 5 326 -14 q 160 65 207 24 q 84 173 113 107 q 56 333 56 239 q 84 492 56 426 q 160 600 113 558 q 267 661 207 642 q 389 681 326 681 m 389 42 q 460 58 425 42 q 523 109 496 74 q 567 200 550 144 q 583 333 583 256 q 567 467 583 411 q 523 558 550 522 q 460 609 496 593 q 389 625 425 625 q 317 609 353 625 q 255 558 282 593 q 211 467 228 522 q 194 333 194 411 q 211 200 194 256 q 255 109 228 144 q 317 58 282 74 q 389 42 353 42 m 389 722 l 250 889 l 389 889 l 444 722 l 389 722 z "},"ó":{"ha":778,"x_min":56,"x_max":722,"o":"m 389 681 q 267 661 326 681 q 160 600 207 642 q 84 492 113 558 q 56 333 56 426 q 84 173 56 239 q 160 65 113 107 q 267 5 207 24 q 389 -14 326 -14 q 511 5 451 -14 q 618 65 571 24 q 694 173 665 107 q 722 333 722 239 q 694 492 722 426 q 618 600 665 558 q 511 661 571 642 q 389 681 451 681 m 389 42 q 317 58 353 42 q 255 109 282 74 q 211 200 228 144 q 194 333 194 256 q 211 467 194 411 q 255 558 228 522 q 317 609 282 593 q 389 625 353 625 q 460 609 425 625 q 523 558 496 593 q 567 467 550 522 q 583 333 583 411 q 567 200 583 256 q 523 109 550 144 q 460 58 496 74 q 389 42 425 42 m 333 722 l 389 889 l 528 889 l 389 722 l 333 722 z "},"ô":{"ha":778,"x_min":56,"x_max":722,"o":"m 389 681 q 511 661 451 681 q 618 600 571 642 q 694 492 665 558 q 722 333 722 426 q 694 173 722 239 q 618 65 665 107 q 511 5 571 24 q 389 -14 451 -14 q 267 5 326 -14 q 160 65 207 24 q 84 173 113 107 q 56 333 56 239 q 84 492 56 426 q 160 600 113 558 q 267 661 207 642 q 389 681 326 681 m 389 42 q 460 58 425 42 q 523 109 496 74 q 567 200 550 144 q 583 333 583 256 q 567 467 583 411 q 523 558 550 522 q 460 609 496 593 q 389 625 425 625 q 317 609 353 625 q 255 558 282 593 q 211 467 228 522 q 194 333 194 411 q 211 200 194 256 q 255 109 228 144 q 317 58 282 74 q 389 42 353 42 m 486 722 l 389 792 l 292 722 l 236 722 l 361 889 l 417 889 l 542 722 l 486 722 z "},"õ":{"ha":778,"x_min":56,"x_max":722,"o":"m 389 681 q 511 661 451 681 q 618 600 571 642 q 694 492 665 558 q 722 333 722 426 q 694 173 722 239 q 618 65 665 107 q 511 5 571 24 q 389 -14 451 -14 q 267 5 326 -14 q 160 65 207 24 q 84 173 113 107 q 56 333 56 239 q 84 492 56 426 q 160 600 113 558 q 267 661 207 642 q 389 681 326 681 m 389 42 q 460 58 425 42 q 523 109 496 74 q 567 200 550 144 q 583 333 583 256 q 567 467 583 411 q 523 558 550 522 q 460 609 496 593 q 389 625 425 625 q 317 609 353 625 q 255 558 282 593 q 211 467 228 522 q 194 333 194 411 q 211 200 194 256 q 255 109 228 144 q 317 58 282 74 q 389 42 353 42 m 486 819 q 522 824 507 819 q 549 833 538 828 q 569 847 561 839 l 583 833 q 551 785 569 806 q 513 751 536 765 q 458 736 490 736 q 408 744 426 736 q 375 763 390 753 q 341 783 360 774 q 292 792 322 792 q 256 788 271 792 q 229 778 240 783 q 208 764 217 772 l 194 778 q 225 826 207 804 q 264 860 240 844 q 319 875 288 875 q 369 866 350 875 q 403 847 388 857 q 436 828 418 836 q 486 819 454 819 z "},"ö":{"ha":778,"x_min":56,"x_max":722,"o":"m 389 681 q 267 661 326 681 q 160 600 207 642 q 84 492 113 558 q 56 333 56 426 q 84 173 56 239 q 160 65 113 107 q 267 5 207 24 q 389 -14 326 -14 q 511 5 451 -14 q 618 65 571 24 q 694 173 665 107 q 722 333 722 239 q 694 492 722 426 q 618 600 665 558 q 511 661 571 642 q 389 681 451 681 m 389 42 q 317 58 353 42 q 255 109 282 74 q 211 200 228 144 q 194 333 194 256 q 211 467 194 411 q 255 558 228 522 q 317 609 282 593 q 389 625 353 625 q 460 609 425 625 q 523 558 496 593 q 567 467 550 522 q 583 333 583 411 q 567 200 583 256 q 523 109 550 144 q 460 58 496 74 q 389 42 425 42 m 375 806 q 355 756 375 776 q 306 736 335 736 q 256 756 276 736 q 236 806 236 776 q 256 855 236 835 q 306 875 276 875 q 355 855 335 875 q 375 806 375 835 m 569 806 q 549 756 569 776 q 500 736 529 736 q 451 756 471 736 q 431 806 431 776 q 451 855 431 835 q 500 875 471 875 q 549 855 529 875 q 569 806 569 835 z "},"ø":{"ha":778,"x_min":56,"x_max":722,"o":"m 611 607 q 692 498 661 565 q 722 333 722 431 q 694 173 722 239 q 618 65 665 107 q 511 5 571 24 q 389 -14 451 -14 q 294 -3 340 -14 q 208 31 249 7 l 167 -28 l 125 0 l 167 60 q 86 169 117 101 q 56 333 56 236 q 84 492 56 426 q 160 600 113 558 q 267 661 207 642 q 389 681 326 681 q 483 669 438 681 q 569 635 529 658 l 611 694 l 653 667 l 611 607 m 194 333 q 204 229 194 275 q 231 150 214 183 l 518 563 q 458 610 490 594 q 389 625 425 625 q 317 609 353 625 q 255 558 282 593 q 211 467 228 522 q 194 333 194 411 m 389 42 q 460 58 425 42 q 523 109 496 74 q 567 200 550 144 q 583 333 583 256 q 574 437 583 392 q 547 517 564 482 l 260 104 q 319 57 286 72 q 389 42 353 42 z "},"œ":{"ha":1028,"x_min":56,"x_max":972,"o":"m 611 611 l 611 361 l 750 361 q 809 385 785 361 q 833 444 833 410 l 861 444 l 861 222 l 833 222 q 809 281 833 257 q 750 306 785 306 l 611 306 l 611 56 l 778 56 q 842 69 813 56 q 895 105 872 82 q 931 158 918 128 q 944 222 944 188 l 972 222 l 972 0 l 500 0 q 465 -7 483 -4 q 389 -14 431 -14 q 267 5 326 -14 q 160 65 207 24 q 84 173 113 107 q 56 333 56 239 q 84 492 56 426 q 160 600 113 558 q 267 661 207 642 q 389 681 326 681 q 430 678 410 681 q 465 674 450 676 l 500 667 l 972 667 l 972 444 l 944 444 q 931 509 944 479 q 895 562 918 539 q 842 598 872 585 q 778 611 813 611 l 611 611 m 500 583 q 471 604 488 594 q 435 618 456 611 q 389 625 415 625 q 317 609 353 625 q 255 558 282 593 q 211 467 228 522 q 194 333 194 411 q 211 200 194 256 q 255 109 228 144 q 317 58 282 74 q 389 42 353 42 q 435 48 415 42 q 471 63 456 54 q 500 83 488 71 l 500 583 z "},"š":{"ha":611,"x_min":56,"x_max":556,"o":"m 194 514 q 222 439 194 465 q 288 397 249 413 q 375 368 328 381 q 462 335 422 356 q 528 278 501 314 q 556 181 556 243 q 538 103 556 139 q 491 42 521 68 q 421 1 461 15 q 333 -14 381 -14 q 240 2 281 -14 q 171 42 200 18 q 142 53 157 51 q 113 48 126 54 q 92 29 100 42 q 83 0 83 17 l 56 0 l 56 222 l 83 222 q 147 139 111 175 q 218 81 178 107 q 306 56 258 56 q 388 83 358 56 q 417 153 417 111 q 390 218 417 194 q 323 258 363 242 q 236 288 283 274 q 149 326 189 303 q 83 386 110 349 q 56 486 56 424 q 73 563 56 528 q 120 625 90 599 q 190 666 150 651 q 278 681 231 681 q 367 667 331 681 q 428 632 403 653 q 451 623 439 624 q 475 627 464 622 q 493 642 486 632 q 500 667 500 653 l 528 667 l 528 444 l 500 444 q 454 535 481 494 q 394 597 431 568 q 306 625 358 625 q 229 596 264 625 q 194 514 194 567 m 278 722 l 153 889 l 208 889 l 306 819 l 403 889 l 458 889 l 333 722 l 278 722 z "},"ş":{"ha":611,"x_min":56,"x_max":556,"o":"m 556 181 q 538 103 556 139 q 491 42 521 68 q 421 1 461 15 q 333 -14 381 -14 l 318 -44 q 378 -78 354 -53 q 403 -139 403 -104 q 370 -208 403 -179 q 292 -236 338 -236 q 249 -229 263 -236 q 236 -222 242 -226 l 236 -194 q 246 -201 240 -199 q 278 -208 257 -208 q 317 -192 301 -208 q 333 -153 333 -176 q 317 -113 333 -129 q 278 -97 301 -97 l 264 -97 l 306 -12 q 229 7 263 -8 q 171 42 196 22 q 142 53 157 51 q 113 48 126 54 q 92 29 100 42 q 83 0 83 17 l 56 0 l 56 222 l 83 222 q 147 139 111 175 q 218 81 178 107 q 306 56 258 56 q 388 83 358 56 q 417 153 417 111 q 390 218 417 194 q 323 258 363 242 q 236 288 283 274 q 149 326 189 303 q 83 386 110 349 q 56 486 56 424 q 73 563 56 528 q 120 625 90 599 q 190 666 150 651 q 278 681 231 681 q 367 667 331 681 q 428 632 403 653 q 451 623 439 624 q 475 627 464 622 q 493 642 486 632 q 500 667 500 653 l 528 667 l 528 444 l 500 444 q 454 535 481 494 q 394 597 431 568 q 306 625 358 625 q 229 596 264 625 q 194 514 194 567 q 222 439 194 465 q 288 397 249 413 q 375 368 328 381 q 462 335 422 356 q 528 278 501 314 q 556 181 556 243 z "},"ù":{"ha":750,"x_min":28,"x_max":722,"o":"m 722 667 l 722 639 q 663 615 688 639 q 639 556 639 590 l 639 250 q 619 144 639 193 q 565 60 600 96 q 481 6 529 25 q 375 -14 432 -14 q 269 6 318 -14 q 185 60 221 25 q 131 144 150 96 q 111 250 111 193 l 111 556 q 87 615 111 590 q 28 639 63 639 l 28 667 l 306 667 l 306 639 q 247 615 271 639 q 222 556 222 590 l 222 250 q 237 175 222 208 q 276 118 251 142 q 334 82 301 94 q 403 69 367 69 q 472 82 439 69 q 529 118 504 94 q 569 175 554 142 q 583 250 583 208 l 583 556 q 559 615 583 590 q 500 639 535 639 l 500 667 l 722 667 m 403 722 l 264 889 l 403 889 l 458 722 l 403 722 z "},"ú":{"ha":750,"x_min":28,"x_max":722,"o":"m 500 667 l 500 639 q 559 615 535 639 q 583 556 583 590 l 583 250 q 569 175 583 208 q 529 118 554 142 q 472 82 504 94 q 403 69 439 69 q 334 82 367 69 q 276 118 301 94 q 237 175 251 142 q 222 250 222 208 l 222 556 q 247 615 222 590 q 306 639 271 639 l 306 667 l 28 667 l 28 639 q 87 615 63 639 q 111 556 111 590 l 111 250 q 131 144 111 193 q 185 60 150 96 q 269 6 221 25 q 375 -14 318 -14 q 481 6 432 -14 q 565 60 529 25 q 619 144 600 96 q 639 250 639 193 l 639 556 q 663 615 639 590 q 722 639 688 639 l 722 667 l 500 667 m 347 722 l 403 889 l 542 889 l 403 722 l 347 722 z "},"û":{"ha":750,"x_min":28,"x_max":722,"o":"m 722 667 l 722 639 q 663 615 688 639 q 639 556 639 590 l 639 250 q 619 144 639 193 q 565 60 600 96 q 481 6 529 25 q 375 -14 432 -14 q 269 6 318 -14 q 185 60 221 25 q 131 144 150 96 q 111 250 111 193 l 111 556 q 87 615 111 590 q 28 639 63 639 l 28 667 l 306 667 l 306 639 q 247 615 271 639 q 222 556 222 590 l 222 250 q 237 175 222 208 q 276 118 251 142 q 334 82 301 94 q 403 69 367 69 q 472 82 439 69 q 529 118 504 94 q 569 175 554 142 q 583 250 583 208 l 583 556 q 559 615 583 590 q 500 639 535 639 l 500 667 l 722 667 m 500 722 l 403 792 l 306 722 l 250 722 l 375 889 l 431 889 l 556 722 l 500 722 z "},"ü":{"ha":750,"x_min":28,"x_max":722,"o":"m 500 667 l 500 639 q 559 615 535 639 q 583 556 583 590 l 583 250 q 569 175 583 208 q 529 118 554 142 q 472 82 504 94 q 403 69 439 69 q 334 82 367 69 q 276 118 301 94 q 237 175 251 142 q 222 250 222 208 l 222 556 q 247 615 222 590 q 306 639 271 639 l 306 667 l 28 667 l 28 639 q 87 615 63 639 q 111 556 111 590 l 111 250 q 131 144 111 193 q 185 60 150 96 q 269 6 221 25 q 375 -14 318 -14 q 481 6 432 -14 q 565 60 529 25 q 619 144 600 96 q 639 250 639 193 l 639 556 q 663 615 639 590 q 722 639 688 639 l 722 667 l 500 667 m 375 806 q 355 756 375 776 q 306 736 335 736 q 256 756 276 736 q 236 806 236 776 q 256 855 236 835 q 306 875 276 875 q 355 855 335 875 q 375 806 375 835 m 569 806 q 549 756 569 776 q 500 736 529 736 q 451 756 471 736 q 431 806 431 776 q 451 855 431 835 q 500 875 471 875 q 549 855 529 875 q 569 806 569 835 z "},"ý":{"ha":694,"x_min":0,"x_max":694,"o":"m 472 667 l 472 639 q 501 621 492 639 q 499 586 510 603 l 365 406 l 247 583 q 246 620 236 601 q 278 639 256 639 l 278 667 l 0 667 l 0 639 q 68 622 36 639 q 119 575 100 606 l 278 338 l 278 111 q 253 52 278 76 q 194 28 229 28 l 194 0 l 472 0 l 472 28 q 413 52 438 28 q 389 111 389 76 l 389 343 l 553 567 q 615 620 578 601 q 694 639 653 639 l 694 667 l 472 667 m 319 722 l 375 889 l 514 889 l 375 722 l 319 722 z "},"ÿ":{"ha":694,"x_min":0,"x_max":694,"o":"m 472 667 l 472 639 q 501 621 492 639 q 499 586 510 603 l 365 406 l 247 583 q 246 620 236 601 q 278 639 256 639 l 278 667 l 0 667 l 0 639 q 68 622 36 639 q 119 575 100 606 l 278 338 l 278 111 q 253 52 278 76 q 194 28 229 28 l 194 0 l 472 0 l 472 28 q 413 52 438 28 q 389 111 389 76 l 389 343 l 553 567 q 615 620 578 601 q 694 639 653 639 l 694 667 l 472 667 m 347 806 q 327 756 347 776 q 278 736 307 736 q 228 756 249 736 q 208 806 208 776 q 228 855 208 835 q 278 875 249 875 q 327 855 307 875 q 347 806 347 835 m 542 806 q 522 756 542 776 q 472 736 501 736 q 423 756 443 736 q 403 806 403 776 q 423 855 403 835 q 472 875 443 875 q 522 855 501 875 q 542 806 542 835 z "},"ž":{"ha":667,"x_min":56,"x_max":611,"o":"m 611 222 l 611 0 l 56 0 l 56 42 l 439 611 l 250 611 q 185 598 215 611 q 133 562 156 585 q 97 509 110 539 q 83 444 83 479 l 56 444 l 56 667 l 611 667 l 200 56 l 417 56 q 481 69 451 56 q 534 105 511 82 q 570 158 557 128 q 583 222 583 188 l 611 222 m 306 722 l 181 889 l 236 889 l 333 819 l 431 889 l 486 889 l 361 722 l 306 722 z "},"ﬀ":{"ha":1111,"x_min":28,"x_max":1083,"o":"m 1083 667 l 1083 444 l 1056 444 q 1042 509 1056 479 q 1006 562 1029 539 q 953 598 983 585 q 889 611 924 611 l 722 611 l 722 361 l 833 361 q 892 385 868 361 q 917 444 917 410 l 944 444 l 944 222 l 917 222 q 892 281 917 257 q 833 306 868 306 l 722 306 l 722 111 q 747 52 722 76 q 806 28 771 28 l 806 0 l 528 0 l 528 28 q 587 52 563 28 q 611 111 611 76 l 611 556 q 595 595 611 579 q 556 611 579 611 l 222 611 l 222 361 l 333 361 q 392 385 368 361 q 417 444 417 410 l 444 444 l 444 222 l 417 222 q 392 281 417 257 q 333 306 368 306 l 222 306 l 222 111 q 247 52 222 76 q 306 28 271 28 l 306 0 l 28 0 l 28 28 q 87 52 63 28 q 111 111 111 76 l 111 556 q 87 615 111 590 q 28 639 63 639 l 28 667 l 1083 667 z "}}}
